<svg xmlns="http://www.w3.org/2000/svg" xmlns:xlink="http://www.w3.org/1999/xlink" width="507" zoomAndPan="magnify" viewBox="0 0 380.25 74.999997" height="100" preserveAspectRatio="xMidYMid meet" version="1.0"><defs><g/><clipPath id="8ae974417e"><path d="M 0 0.0742188 L 379.5 0.0742188 L 379.5 74.925781 L 0 74.925781 Z M 0 0.0742188 " clip-rule="nonzero"/></clipPath><clipPath id="152ab6c7f4"><path d="M 0 0.0742188 L 100.726562 0.0742188 L 100.726562 73.605469 L 0 73.605469 Z M 0 0.0742188 " clip-rule="nonzero"/></clipPath><clipPath id="d1485567b2"><path d="M 26.410156 18.097656 L 48.949219 18.097656 L 48.949219 65.378906 L 26.410156 65.378906 Z M 26.410156 18.097656 " clip-rule="nonzero"/></clipPath><clipPath id="34510a5d6a"><path d="M 42.144531 19.011719 C 37.171875 19.804688 37.089844 19.886719 36.628906 20.265625 C 35.335938 21.308594 31.113281 24.902344 29.691406 27.160156 C 28.6875 28.75 28.398438 29.792969 28.019531 31.800781 C 27.351562 35.226562 26.890625 41.535156 27.519531 45.925781 C 28.0625 49.894531 30.070312 54.699219 31.070312 57.039062 C 31.574219 58.210938 31.824219 58.796875 32.410156 59.589844 C 33.035156 60.46875 33.871094 61.304688 34.75 62.054688 C 35.625 62.765625 36.460938 63.558594 37.589844 63.9375 C 38.886719 64.4375 40.808594 64.605469 42.1875 64.394531 C 43.441406 64.269531 44.90625 63.6875 45.574219 63.183594 C 45.992188 62.851562 46.074219 62.558594 46.324219 62.140625 C 46.660156 61.597656 47.078125 61.054688 47.328125 60.089844 C 47.828125 58.253906 48.5 54.367188 48.039062 51.566406 C 47.578125 48.683594 45.238281 45.507812 44.488281 43.039062 C 43.941406 41.328125 43.652344 40.242188 43.484375 38.484375 C 43.316406 36.144531 43.484375 32.84375 43.859375 30.210938 C 44.195312 27.703125 45.867188 24.945312 45.613281 23.066406 C 45.40625 21.6875 44.320312 20.347656 43.652344 19.761719 C 43.273438 19.386719 42.648438 19.386719 42.523438 19.179688 C 42.4375 19.011719 42.4375 18.761719 42.5625 18.675781 C 42.648438 18.550781 43.066406 18.550781 43.148438 18.636719 C 43.234375 18.761719 43.148438 19.261719 43.023438 19.34375 C 42.898438 19.386719 42.4375 19.09375 42.4375 18.96875 C 42.4375 18.800781 42.773438 18.550781 43.023438 18.550781 C 43.484375 18.550781 44.570312 19.679688 45.113281 20.304688 C 45.574219 20.890625 45.949219 21.519531 46.15625 22.105469 C 46.324219 22.648438 46.492188 23.191406 46.410156 23.773438 C 46.324219 24.527344 45.65625 25.320312 45.363281 26.242188 C 45.03125 27.410156 44.820312 28.621094 44.695312 30.210938 C 44.445312 32.675781 43.984375 36.6875 44.402344 39.613281 C 44.777344 42.289062 45.949219 45.046875 46.828125 47.09375 C 47.453125 48.640625 48.539062 49.894531 48.832031 51.066406 C 49.042969 51.859375 48.917969 52.359375 48.875 53.28125 C 48.75 54.992188 48.539062 58.671875 48.082031 60.300781 C 47.789062 61.21875 47.496094 61.722656 47.035156 62.390625 C 46.492188 63.140625 45.65625 64.0625 44.863281 64.523438 C 44.152344 64.9375 43.523438 65.148438 42.605469 65.230469 C 41.269531 65.398438 39.011719 65.316406 37.550781 64.8125 C 36.253906 64.355469 35.167969 63.433594 34.164062 62.597656 C 33.203125 61.847656 32.449219 61.09375 31.699219 60.050781 C 30.820312 58.710938 30.070312 57 29.359375 55.078125 C 28.355469 52.527344 27.101562 49.351562 26.683594 45.925781 C 26.140625 41.703125 26.515625 35.015625 27.226562 31.589844 C 27.601562 29.585938 28.105469 28.332031 28.898438 26.953125 C 29.691406 25.613281 30.738281 24.527344 31.992188 23.316406 C 33.496094 21.851562 35.542969 19.761719 37.382812 18.925781 C 38.929688 18.257812 41.4375 17.964844 42.144531 18.175781 C 42.398438 18.257812 42.5625 18.425781 42.5625 18.550781 C 42.5625 18.675781 42.144531 19.011719 42.144531 19.011719 " clip-rule="nonzero"/></clipPath><clipPath id="b0c0118e36"><path d="M 29.097656 34.378906 L 31.039062 34.378906 L 31.039062 48.445312 L 29.097656 48.445312 Z M 29.097656 34.378906 " clip-rule="nonzero"/></clipPath><clipPath id="3243ce4bec"><path d="M 30.152344 48.015625 C 29.148438 42.875 29.023438 40.324219 29.148438 38.527344 C 29.273438 37.066406 29.398438 34.976562 29.902344 34.640625 C 30.109375 34.472656 30.652344 34.640625 30.695312 34.765625 C 30.738281 34.851562 30.445312 35.226562 30.277344 35.226562 C 30.152344 35.226562 29.859375 34.933594 29.859375 34.808594 C 29.859375 34.640625 30.152344 34.390625 30.320312 34.390625 C 30.445312 34.390625 30.652344 34.640625 30.695312 34.851562 C 30.777344 35.308594 30.234375 36.1875 30.109375 37.066406 C 29.902344 38.359375 29.859375 40.199219 29.984375 41.871094 C 30.109375 43.792969 31.238281 47.179688 30.988281 48.015625 C 30.90625 48.265625 30.777344 48.433594 30.613281 48.433594 C 30.488281 48.433594 30.152344 48.015625 30.152344 48.015625 " clip-rule="nonzero"/></clipPath><clipPath id="06ad08dea6"><path d="M 51.769531 8.0625 L 74.3125 8.0625 L 74.3125 55.339844 L 51.769531 55.339844 Z M 51.769531 8.0625 " clip-rule="nonzero"/></clipPath><clipPath id="eaa196a116"><path d="M 58.574219 54.429688 C 63.546875 53.632812 63.628906 53.550781 64.089844 53.175781 C 65.386719 52.128906 69.605469 48.535156 71.027344 46.28125 C 72.03125 44.691406 72.324219 43.648438 72.699219 41.640625 C 73.367188 38.214844 73.828125 31.902344 73.199219 27.515625 C 72.65625 23.546875 70.652344 18.738281 69.648438 16.398438 C 69.148438 15.230469 68.894531 14.644531 68.3125 13.847656 C 67.683594 12.972656 66.847656 12.136719 65.972656 11.382812 C 65.09375 10.671875 64.257812 9.878906 63.128906 9.503906 C 61.832031 9 59.910156 8.835938 58.53125 9.042969 C 57.277344 9.167969 55.816406 9.753906 55.148438 10.253906 C 54.730469 10.589844 54.644531 10.882812 54.394531 11.300781 C 54.058594 11.84375 53.644531 12.386719 53.390625 13.347656 C 52.890625 15.1875 52.222656 19.074219 52.679688 21.875 C 53.140625 24.757812 55.480469 27.933594 56.234375 30.398438 C 56.777344 32.113281 57.070312 33.199219 57.238281 34.953125 C 57.402344 37.292969 57.238281 40.597656 56.859375 43.230469 C 56.527344 45.734375 54.855469 48.496094 55.105469 50.375 C 55.3125 51.753906 56.402344 53.089844 57.070312 53.675781 C 57.445312 54.050781 58.074219 54.050781 58.199219 54.261719 C 58.28125 54.429688 58.28125 54.679688 58.15625 54.761719 C 58.074219 54.886719 57.65625 54.886719 57.570312 54.804688 C 57.488281 54.679688 57.570312 54.179688 57.695312 54.09375 C 57.820312 54.050781 58.28125 54.34375 58.28125 54.46875 C 58.28125 54.636719 57.945312 54.886719 57.695312 54.886719 C 57.238281 54.886719 56.148438 53.761719 55.605469 53.132812 C 55.148438 52.546875 54.769531 51.921875 54.5625 51.335938 C 54.394531 50.792969 54.226562 50.25 54.3125 49.664062 C 54.394531 48.914062 55.0625 48.117188 55.355469 47.199219 C 55.691406 46.027344 55.898438 44.816406 56.023438 43.230469 C 56.277344 40.761719 56.734375 36.75 56.316406 33.824219 C 55.941406 31.152344 54.769531 28.394531 53.894531 26.34375 C 53.265625 24.796875 52.179688 23.546875 51.886719 22.375 C 51.679688 21.582031 51.804688 21.078125 51.84375 20.160156 C 51.972656 18.445312 52.179688 14.769531 52.640625 13.140625 C 52.933594 12.21875 53.226562 11.71875 53.683594 11.050781 C 54.226562 10.296875 55.0625 9.378906 55.859375 8.917969 C 56.566406 8.5 57.195312 8.292969 58.113281 8.207031 C 59.453125 8.039062 61.707031 8.125 63.171875 8.625 C 64.464844 9.085938 65.554688 10.003906 66.554688 10.839844 C 67.515625 11.59375 68.269531 12.34375 69.023438 13.390625 C 69.898438 14.726562 70.652344 16.441406 71.363281 18.363281 C 72.363281 20.914062 73.617188 24.089844 74.035156 27.515625 C 74.578125 31.734375 74.203125 38.421875 73.492188 41.847656 C 73.117188 43.855469 72.617188 45.109375 71.820312 46.488281 C 71.027344 47.824219 69.984375 48.914062 68.730469 50.125 C 67.226562 51.585938 65.175781 53.675781 63.339844 54.511719 C 61.792969 55.179688 59.285156 55.472656 58.574219 55.265625 C 58.324219 55.179688 58.15625 55.015625 58.15625 54.886719 C 58.15625 54.761719 58.574219 54.429688 58.574219 54.429688 " clip-rule="nonzero"/></clipPath><clipPath id="9e51024aa6"><path d="M 68 23 L 72 23 L 72 38 L 68 38 Z M 68 23 " clip-rule="nonzero"/></clipPath><clipPath id="cfd186a917"><path d="M 71.71875 37.003906 L 69.78125 37.15625 L 68.671875 23.128906 L 70.609375 22.976562 Z M 71.71875 37.003906 " clip-rule="nonzero"/></clipPath><clipPath id="c5fa4c44cb"><path d="M 69.59375 23.492188 C 70.996094 28.539062 71.324219 31.070312 71.339844 32.871094 C 71.328125 34.339844 71.367188 36.429688 70.894531 36.804688 C 70.699219 36.988281 70.144531 36.863281 70.09375 36.742188 C 70.046875 36.660156 70.308594 36.261719 70.472656 36.25 C 70.597656 36.242188 70.914062 36.507812 70.921875 36.632812 C 70.9375 36.800781 70.664062 37.074219 70.5 37.085938 C 70.375 37.097656 70.144531 36.863281 70.085938 36.660156 C 69.96875 36.207031 70.441406 35.289062 70.496094 34.402344 C 70.601562 33.097656 70.5 31.257812 70.242188 29.601562 C 69.964844 27.695312 68.574219 24.410156 68.757812 23.558594 C 68.824219 23.300781 68.933594 23.125 69.101562 23.113281 C 69.226562 23.101562 69.59375 23.492188 69.59375 23.492188 " clip-rule="nonzero"/></clipPath><clipPath id="2cbbdb46e5"><path d="M 35 73 L 69 73 L 69 74.925781 L 35 74.925781 Z M 35 73 " clip-rule="nonzero"/></clipPath><clipPath id="f3c9003523"><path d="M 110 0.0742188 L 114 0.0742188 L 114 74.925781 L 110 74.925781 Z M 110 0.0742188 " clip-rule="nonzero"/></clipPath></defs><g clip-path="url(#8ae974417e)"><path fill="#ffffff" d="M 0 0.0742188 L 379.5 0.0742188 L 379.5 74.925781 L 0 74.925781 Z M 0 0.0742188 " fill-opacity="1" fill-rule="nonzero"/></g><g clip-path="url(#152ab6c7f4)"><path fill="#000000" d="M 100.011719 44.597656 L 100.074219 44.597656 L 100.074219 44.65625 C 99.925781 46.421875 99.128906 48.039062 97.816406 49.230469 C 96.507812 50.414062 94.808594 51.046875 93.050781 51.007812 L 93.039062 51.007812 C 92.625 52.324219 92.152344 53.636719 91.605469 54.925781 C 92.082031 54.292969 92.652344 53.769531 93.316406 53.332031 C 94.796875 52.371094 96.566406 52.007812 98.300781 52.324219 L 98.363281 52.335938 L 98.351562 52.394531 C 97.9375 54.109375 96.894531 55.597656 95.414062 56.558594 C 93.9375 57.519531 92.164062 57.882812 90.429688 57.566406 L 90.417969 57.566406 C 90.347656 57.726562 90.261719 57.871094 90.1875 58.03125 C 89.640625 59.101562 89.035156 60.171875 88.367188 61.242188 C 88.9375 60.683594 89.605469 60.230469 90.332031 59.914062 C 91.945312 59.199219 93.742188 59.125 95.414062 59.707031 L 95.464844 59.734375 L 95.441406 59.78125 C 94.761719 61.410156 93.5 62.714844 91.886719 63.433594 C 90.273438 64.148438 88.476562 64.222656 86.804688 63.640625 L 86.78125 63.625 C 85.96875 64.769531 85.09375 65.890625 84.183594 66.949219 C 84.839844 66.484375 85.566406 66.132812 86.34375 65.925781 C 88.042969 65.464844 89.835938 65.671875 91.390625 66.511719 L 91.4375 66.535156 L 91.414062 66.582031 C 90.480469 68.09375 89.035156 69.175781 87.339844 69.625 C 85.640625 70.085938 83.84375 69.882812 82.292969 69.042969 L 82.269531 69.027344 C 80.65625 70.683594 78.921875 72.203125 77.113281 73.566406 L 77.066406 73.605469 L 76.507812 72.863281 L 76.554688 72.824219 C 78.328125 71.488281 80 70.015625 81.550781 68.421875 C 80.449219 67.058594 79.902344 65.34375 80.023438 63.589844 C 80.144531 61.824219 80.921875 60.195312 82.21875 58.992188 L 82.257812 58.953125 L 82.292969 59.003906 C 83.410156 60.378906 83.953125 62.09375 83.832031 63.859375 C 83.746094 65.050781 83.359375 66.183594 82.71875 67.167969 C 83.882812 65.878906 84.972656 64.527344 85.96875 63.117188 C 84.667969 61.933594 83.855469 60.328125 83.710938 58.589844 C 83.554688 56.824219 84.074219 55.097656 85.167969 53.699219 L 85.203125 53.648438 L 85.238281 53.683594 C 86.5625 54.867188 87.375 56.484375 87.519531 58.234375 C 87.628906 59.453125 87.410156 60.644531 86.914062 61.726562 C 87.800781 60.390625 88.597656 59.003906 89.328125 57.578125 C 89.386719 57.445312 89.449219 57.324219 89.519531 57.191406 C 88.054688 56.242188 87 54.769531 86.574219 53.066406 C 86.148438 51.347656 86.378906 49.546875 87.242188 48.015625 L 87.265625 47.964844 L 87.3125 48.003906 C 88.792969 48.964844 89.847656 50.425781 90.285156 52.140625 C 90.578125 53.332031 90.550781 54.5625 90.210938 55.71875 C 90.941406 54.097656 91.570312 52.457031 92.09375 50.789062 C 90.492188 50.070312 89.21875 48.792969 88.539062 47.175781 C 87.847656 45.546875 87.8125 43.730469 88.417969 42.078125 L 88.441406 42.027344 L 88.488281 42.054688 C 90.101562 42.757812 91.375 44.046875 92.066406 45.679688 C 92.554688 46.824219 92.710938 48.050781 92.554688 49.269531 C 93.027344 47.566406 93.390625 45.824219 93.644531 44.0625 C 91.945312 43.609375 90.503906 42.539062 89.570312 41.054688 C 88.636719 39.558594 88.308594 37.769531 88.648438 36.042969 L 88.660156 35.980469 L 88.71875 35.992188 C 90.429688 36.445312 91.886719 37.515625 92.820312 39.011719 C 93.449219 40.019531 93.800781 41.175781 93.851562 42.34375 C 94.019531 40.773438 94.105469 39.179688 94.105469 37.585938 C 94.105469 37.488281 94.105469 37.394531 94.105469 37.296875 L 94.105469 37.160156 C 92.371094 36.980469 90.78125 36.152344 89.640625 34.824219 C 88.476562 33.488281 87.882812 31.785156 87.957031 30.019531 L 87.957031 29.957031 L 88.015625 29.957031 C 89.777344 30.128906 91.375 30.96875 92.527344 32.292969 C 93.292969 33.183594 93.816406 34.21875 94.058594 35.347656 C 93.972656 33.632812 93.789062 31.941406 93.511719 30.261719 C 93.390625 30.273438 93.257812 30.273438 93.136719 30.273438 C 91.523438 30.273438 89.96875 29.714844 88.71875 28.667969 C 87.375 27.535156 86.511719 25.941406 86.308594 24.179688 L 86.292969 24.117188 L 86.355469 24.117188 C 88.113281 24.019531 89.835938 24.578125 91.183594 25.722656 C 92.105469 26.503906 92.796875 27.5 93.207031 28.609375 C 92.855469 26.890625 92.40625 25.210938 91.851562 23.558594 C 91.363281 23.667969 90.878906 23.714844 90.394531 23.714844 C 89.15625 23.714844 87.945312 23.386719 86.851562 22.730469 C 85.335938 21.816406 84.246094 20.382812 83.773438 18.679688 L 83.761719 18.628906 L 83.820312 18.617188 C 85.542969 18.242188 87.324219 18.53125 88.84375 19.445312 C 89.871094 20.066406 90.710938 20.941406 91.292969 21.976562 C 90.671875 20.359375 89.96875 18.761719 89.15625 17.207031 C 87.519531 17.839844 85.738281 17.828125 84.113281 17.167969 C 82.472656 16.511719 81.164062 15.257812 80.4375 13.652344 L 80.414062 13.605469 L 80.460938 13.582031 C 82.097656 12.933594 83.90625 12.949219 85.542969 13.605469 C 86.621094 14.042969 87.542969 14.722656 88.273438 15.613281 C 87.410156 14.128906 86.476562 12.703125 85.480469 11.351562 C 83.964844 12.230469 82.207031 12.484375 80.507812 12.09375 C 78.789062 11.695312 77.308594 10.671875 76.324219 9.199219 L 76.289062 9.152344 L 76.335938 9.125 C 77.867188 8.238281 79.648438 7.957031 81.359375 8.359375 C 82.449219 8.617188 83.457031 9.125 84.304688 9.855469 C 83.664062 9.066406 82.984375 8.289062 82.304688 7.558594 C 80.484375 7.410156 78.835938 6.667969 77.527344 5.414062 C 76.082031 4.027344 75.234375 2.167969 75.136719 0.160156 L 75.136719 0.0976562 L 75.195312 0.0976562 C 77.199219 0.109375 79.089844 0.890625 80.535156 2.277344 C 81.796875 3.492188 82.59375 5.039062 82.851562 6.765625 C 83.410156 7.363281 83.964844 7.984375 84.511719 8.628906 C 84.125 7.875 83.882812 7.058594 83.785156 6.207031 C 83.601562 4.453125 84.085938 2.703125 85.15625 1.289062 L 85.191406 1.242188 L 85.238281 1.277344 C 86.585938 2.433594 87.421875 4.039062 87.605469 5.792969 C 87.785156 7.542969 87.300781 9.296875 86.234375 10.707031 L 86.210938 10.746094 C 87.046875 11.875 87.847656 13.058594 88.585938 14.261719 C 88.34375 13.484375 88.234375 12.667969 88.285156 11.851562 C 88.367188 10.089844 89.121094 8.433594 90.40625 7.214844 L 90.441406 7.179688 L 90.480469 7.230469 C 91.621094 8.578125 92.203125 10.292969 92.105469 12.058594 C 92.019531 13.824219 91.269531 15.464844 89.996094 16.695312 L 89.96875 16.71875 C 90.625 17.960938 91.21875 19.238281 91.742188 20.515625 C 91.632812 19.726562 91.65625 18.933594 91.824219 18.15625 C 92.191406 16.425781 93.183594 14.917969 94.640625 13.910156 L 94.6875 13.871094 L 94.710938 13.921875 C 95.632812 15.429688 95.9375 17.21875 95.574219 18.945312 C 95.210938 20.675781 94.214844 22.183594 92.757812 23.191406 L 92.746094 23.203125 C 93.195312 24.53125 93.570312 25.894531 93.898438 27.269531 C 93.910156 26.464844 94.058594 25.675781 94.347656 24.921875 C 94.980469 23.265625 96.203125 21.941406 97.792969 21.171875 L 97.839844 21.148438 L 97.867188 21.195312 C 98.53125 22.839844 98.558594 24.640625 97.925781 26.296875 C 97.296875 27.949219 96.070312 29.277344 94.480469 30.042969 L 94.457031 30.054688 C 94.6875 31.441406 94.859375 32.867188 94.953125 34.289062 C 95.089844 33.476562 95.367188 32.707031 95.765625 31.988281 C 96.640625 30.457031 98.058594 29.335938 99.746094 28.828125 L 99.792969 28.8125 L 99.804688 28.875 C 100.21875 30.601562 99.953125 32.390625 99.078125 33.925781 C 98.207031 35.457031 96.785156 36.578125 95.101562 37.089844 L 95.0625 37.101562 C 95.0625 37.28125 95.0625 37.441406 95.0625 37.597656 C 95.0625 38.828125 95.015625 40.082031 94.90625 41.335938 C 95.160156 40.570312 95.550781 39.851562 96.058594 39.21875 C 97.164062 37.84375 98.738281 36.953125 100.484375 36.710938 L 100.546875 36.699219 L 100.546875 36.761719 C 100.679688 38.523438 100.144531 40.253906 99.03125 41.628906 C 97.925781 43.003906 96.351562 43.890625 94.601562 44.132812 L 94.578125 44.132812 C 94.386719 45.507812 94.117188 46.882812 93.789062 48.234375 C 94.167969 47.539062 94.652344 46.921875 95.234375 46.382812 C 96.507812 45.242188 98.132812 44.609375 99.84375 44.609375 C 99.902344 44.597656 99.964844 44.597656 100.011719 44.597656 Z M 20.179688 2.25 C 18.917969 3.46875 18.117188 5.015625 17.863281 6.742188 C 17.304688 7.339844 16.75 7.957031 16.203125 8.601562 C 16.589844 7.847656 16.832031 7.035156 16.929688 6.183594 C 17.113281 4.429688 16.628906 2.679688 15.558594 1.265625 L 15.523438 1.21875 L 15.476562 1.253906 C 14.140625 2.410156 13.292969 4.015625 13.109375 5.769531 C 12.929688 7.519531 13.414062 9.273438 14.480469 10.683594 L 14.503906 10.71875 C 13.667969 11.851562 12.867188 13.03125 12.128906 14.238281 C 12.371094 13.457031 12.480469 12.644531 12.429688 11.828125 C 12.34375 10.0625 11.59375 8.421875 10.320312 7.191406 L 10.285156 7.15625 L 10.246094 7.203125 C 9.105469 8.554688 8.523438 10.269531 8.621094 12.035156 C 8.707031 13.800781 9.457031 15.441406 10.734375 16.671875 L 10.757812 16.695312 C 10.101562 17.9375 9.507812 19.214844 8.984375 20.492188 C 9.09375 19.699219 9.070312 18.910156 8.902344 18.132812 C 8.539062 16.402344 7.542969 14.894531 6.085938 13.882812 L 6.039062 13.847656 L 6.015625 13.898438 C 5.09375 15.40625 4.789062 17.195312 5.152344 18.921875 C 5.515625 20.648438 6.511719 22.160156 7.96875 23.167969 L 7.980469 23.179688 C 7.53125 24.507812 7.15625 25.871094 6.828125 27.246094 C 6.816406 26.441406 6.667969 25.652344 6.378906 24.894531 C 5.746094 23.242188 4.523438 21.914062 2.933594 21.148438 L 2.886719 21.125 L 2.859375 21.171875 C 2.195312 22.804688 2.167969 24.617188 2.800781 26.269531 C 3.429688 27.925781 4.65625 29.253906 6.246094 30.019531 L 6.269531 30.03125 C 6.039062 31.417969 5.867188 32.84375 5.773438 34.265625 C 5.636719 33.449219 5.359375 32.683594 4.960938 31.964844 C 4.085938 30.433594 2.667969 29.3125 0.980469 28.800781 L 0.933594 28.789062 L 0.921875 28.851562 C 0.507812 30.578125 0.773438 32.367188 1.648438 33.902344 C 2.519531 35.433594 3.941406 36.554688 5.625 37.0625 L 5.664062 37.078125 C 5.664062 37.257812 5.664062 37.417969 5.664062 37.574219 C 5.664062 38.804688 5.710938 40.058594 5.820312 41.3125 C 5.566406 40.53125 5.175781 39.828125 4.667969 39.195312 C 3.550781 37.820312 1.988281 36.929688 0.242188 36.699219 L 0.179688 36.6875 L 0.179688 36.746094 C 0.046875 38.511719 0.582031 40.238281 1.695312 41.613281 C 2.800781 42.988281 4.378906 43.878906 6.125 44.121094 L 6.148438 44.121094 C 6.34375 45.496094 6.609375 46.871094 6.9375 48.222656 C 6.558594 47.527344 6.074219 46.90625 5.492188 46.371094 C 4.183594 45.191406 2.496094 44.546875 0.726562 44.597656 L 0.664062 44.597656 L 0.664062 44.65625 C 0.8125 46.421875 1.613281 48.039062 2.921875 49.230469 C 4.230469 50.414062 5.917969 51.046875 7.6875 51.007812 L 7.699219 51.007812 C 8.113281 52.324219 8.585938 53.636719 9.132812 54.925781 C 8.660156 54.292969 8.078125 53.769531 7.421875 53.332031 C 5.941406 52.371094 4.171875 52.007812 2.4375 52.324219 L 2.375 52.335938 L 2.386719 52.394531 C 2.800781 54.109375 3.84375 55.597656 5.324219 56.558594 C 6.800781 57.519531 8.574219 57.882812 10.308594 57.566406 L 10.320312 57.566406 C 10.394531 57.726562 10.464844 57.871094 10.550781 58.03125 C 11.097656 59.101562 11.703125 60.183594 12.371094 61.242188 C 11.800781 60.683594 11.132812 60.230469 10.40625 59.914062 C 8.792969 59.199219 6.996094 59.125 5.324219 59.707031 L 5.273438 59.734375 L 5.296875 59.78125 C 5.976562 61.410156 7.238281 62.714844 8.851562 63.433594 C 10.464844 64.148438 12.261719 64.222656 13.933594 63.640625 L 13.957031 63.625 C 14.769531 64.769531 15.644531 65.890625 16.554688 66.949219 C 15.898438 66.484375 15.171875 66.132812 14.394531 65.925781 C 12.699219 65.464844 10.902344 65.671875 9.351562 66.511719 L 9.300781 66.535156 L 9.324219 66.582031 C 10.257812 68.09375 11.703125 69.175781 13.402344 69.625 C 15.097656 70.085938 16.894531 69.882812 18.445312 69.042969 L 18.46875 69.027344 C 20.082031 70.683594 21.816406 72.21875 23.625 73.566406 L 23.675781 73.605469 L 24.230469 72.863281 L 24.183594 72.824219 C 22.414062 71.488281 20.738281 70.015625 19.1875 68.421875 C 20.289062 67.058594 20.835938 65.34375 20.714844 63.589844 C 20.59375 61.824219 19.816406 60.195312 18.519531 58.992188 L 18.484375 58.953125 L 18.445312 59.003906 C 17.332031 60.378906 16.773438 62.09375 16.90625 63.859375 C 16.992188 65.050781 17.378906 66.183594 18.023438 67.167969 C 16.859375 65.878906 15.765625 64.527344 14.757812 63.117188 C 16.058594 61.933594 16.871094 60.328125 17.015625 58.589844 C 17.171875 56.824219 16.652344 55.097656 15.558594 53.699219 L 15.523438 53.648438 L 15.488281 53.683594 C 14.164062 54.867188 13.351562 56.484375 13.207031 58.234375 C 13.097656 59.453125 13.316406 60.644531 13.8125 61.726562 C 12.929688 60.390625 12.128906 59.003906 11.398438 57.578125 C 11.339844 57.445312 11.277344 57.324219 11.207031 57.191406 C 12.671875 56.242188 13.726562 54.769531 14.152344 53.066406 C 14.578125 51.347656 14.347656 49.558594 13.472656 48.015625 L 13.449219 47.964844 L 13.402344 48.003906 C 11.921875 48.964844 10.867188 50.425781 10.429688 52.140625 C 10.136719 53.332031 10.164062 54.5625 10.488281 55.71875 C 9.761719 54.097656 9.132812 52.457031 8.609375 50.789062 C 10.210938 50.070312 11.484375 48.792969 12.164062 47.175781 C 12.855469 45.546875 12.890625 43.730469 12.285156 42.078125 L 12.261719 42.027344 L 12.210938 42.054688 C 10.597656 42.757812 9.324219 44.046875 8.632812 45.679688 C 8.148438 46.824219 7.992188 48.050781 8.148438 49.257812 C 7.675781 47.554688 7.3125 45.8125 7.058594 44.046875 C 8.753906 43.597656 10.199219 42.527344 11.132812 41.042969 C 12.066406 39.546875 12.394531 37.757812 12.042969 36.03125 L 12.042969 35.96875 L 11.980469 35.980469 C 10.273438 36.429688 8.816406 37.503906 7.882812 39 C 7.25 40.007812 6.898438 41.164062 6.851562 42.332031 C 6.679688 40.761719 6.597656 39.179688 6.597656 37.574219 C 6.597656 37.476562 6.597656 37.378906 6.597656 37.28125 L 6.597656 37.148438 C 8.332031 36.964844 9.917969 36.140625 11.070312 34.8125 C 12.222656 33.476562 12.832031 31.769531 12.757812 30.007812 L 12.757812 29.945312 L 12.699219 29.945312 C 10.9375 30.117188 9.335938 30.957031 8.183594 32.28125 C 7.421875 33.171875 6.898438 34.203125 6.65625 35.335938 C 6.742188 33.621094 6.925781 31.929688 7.203125 30.25 C 7.324219 30.261719 7.445312 30.261719 7.578125 30.261719 C 9.191406 30.261719 10.746094 29.703125 11.992188 28.65625 C 13.339844 27.523438 14.203125 25.929688 14.40625 24.167969 L 14.417969 24.105469 L 14.359375 24.105469 C 12.601562 24.007812 10.878906 24.566406 9.53125 25.710938 C 8.609375 26.492188 7.917969 27.488281 7.507812 28.59375 C 7.859375 26.878906 8.308594 25.199219 8.863281 23.546875 C 9.351562 23.65625 9.835938 23.703125 10.320312 23.703125 C 11.558594 23.703125 12.769531 23.375 13.863281 22.71875 C 15.378906 21.804688 16.46875 20.371094 16.941406 18.667969 L 16.953125 18.617188 L 16.894531 18.605469 C 15.171875 18.226562 13.386719 18.519531 11.871094 19.433594 C 10.839844 20.054688 10.003906 20.929688 9.421875 21.976562 C 10.042969 20.34375 10.746094 18.761719 11.558594 17.207031 C 13.195312 17.839844 14.976562 17.828125 16.601562 17.167969 C 18.238281 16.511719 19.550781 15.257812 20.277344 13.652344 L 20.300781 13.605469 L 20.253906 13.582031 C 18.617188 12.933594 16.808594 12.949219 15.171875 13.605469 C 14.09375 14.042969 13.171875 14.722656 12.441406 15.613281 C 13.292969 14.128906 14.238281 12.703125 15.230469 11.351562 C 16.75 12.230469 18.507812 12.484375 20.203125 12.09375 C 21.925781 11.695312 23.40625 10.671875 24.390625 9.199219 L 24.425781 9.152344 L 24.378906 9.125 C 22.847656 8.238281 21.066406 7.957031 19.355469 8.359375 C 18.265625 8.617188 17.257812 9.125 16.410156 9.867188 C 17.050781 9.078125 17.730469 8.300781 18.410156 7.570312 C 20.230469 7.421875 21.878906 6.679688 23.1875 5.425781 C 24.632812 4.039062 25.480469 2.179688 25.578125 0.171875 L 25.578125 0.109375 L 25.503906 0.0742188 C 23.515625 0.0859375 21.613281 0.863281 20.179688 2.25 Z M 20.179688 2.25 " fill-opacity="1" fill-rule="nonzero"/></g><g clip-path="url(#d1485567b2)"><g clip-path="url(#34510a5d6a)"><path fill="#000000" d="M 25.011719 16.503906 L 50.546875 16.503906 L 50.546875 66.972656 L 25.011719 66.972656 Z M 25.011719 16.503906 " fill-opacity="1" fill-rule="nonzero"/></g></g><g clip-path="url(#b0c0118e36)"><g clip-path="url(#3243ce4bec)"><path fill="#000000" d="M 27.476562 32.71875 L 32.660156 32.71875 L 32.660156 50.148438 L 27.476562 50.148438 Z M 27.476562 32.71875 " fill-opacity="1" fill-rule="nonzero"/></g></g><g clip-path="url(#06ad08dea6)"><g clip-path="url(#eaa196a116)"><path fill="#000000" d="M 75.707031 56.9375 L 50.175781 56.9375 L 50.175781 6.464844 L 75.707031 6.464844 Z M 75.707031 56.9375 " fill-opacity="1" fill-rule="nonzero"/></g></g><g clip-path="url(#9e51024aa6)"><g clip-path="url(#cfd186a917)"><g clip-path="url(#c5fa4c44cb)"><path fill="#000000" d="M 73.460938 38.53125 L 68.296875 38.9375 L 66.925781 21.5625 L 72.089844 21.15625 Z M 73.460938 38.53125 " fill-opacity="1" fill-rule="nonzero"/></g></g></g><g clip-path="url(#2cbbdb46e5)"><path stroke-linecap="butt" transform="matrix(0.503633, 0, 0, 0.503633, 35.981123, 73.877306)" fill="none" stroke-linejoin="miter" d="M -0.00129956 1.00372 L 63.110432 1.00372 " stroke="#d9d9d9" stroke-width="2" stroke-opacity="1" stroke-miterlimit="4"/></g><g fill="#ffbd59" fill-opacity="1"><g transform="translate(135.223975, 38.585737)"><g><path d="M 19.109375 -10.46875 C 19.109375 -8.28125 18.628906 -6.394531 17.671875 -4.8125 C 16.710938 -3.238281 15.457031 -2.039062 13.90625 -1.21875 C 12.351562 -0.40625 10.703125 0 8.953125 0 L 0.59375 0 L 0.59375 -0.53125 C 1.332031 -0.550781 1.878906 -0.613281 2.234375 -0.71875 C 2.597656 -0.832031 2.863281 -1.070312 3.03125 -1.4375 C 3.195312 -1.800781 3.28125 -2.382812 3.28125 -3.1875 L 3.28125 -17.96875 C 3.28125 -18.769531 3.195312 -19.347656 3.03125 -19.703125 C 2.863281 -20.066406 2.597656 -20.304688 2.234375 -20.421875 C 1.878906 -20.535156 1.332031 -20.59375 0.59375 -20.59375 L 0.59375 -21.125 L 8.765625 -21.125 C 10.867188 -21.125 12.695312 -20.671875 14.25 -19.765625 C 15.8125 -18.867188 17.007812 -17.613281 17.84375 -16 C 18.6875 -14.394531 19.109375 -12.550781 19.109375 -10.46875 Z M 6.1875 -19.640625 L 6.1875 -1.484375 C 6.9375 -1.128906 7.828125 -0.953125 8.859375 -0.953125 C 11.003906 -0.953125 12.671875 -1.78125 13.859375 -3.4375 C 15.046875 -5.09375 15.640625 -7.40625 15.640625 -10.375 C 15.640625 -13.257812 15.035156 -15.585938 13.828125 -17.359375 C 12.617188 -19.140625 10.859375 -20.03125 8.546875 -20.03125 C 7.785156 -20.03125 7 -19.898438 6.1875 -19.640625 Z M 6.1875 -19.640625 "/></g></g></g><g fill="#ffbd59" fill-opacity="1"><g transform="translate(155.226594, 38.585737)"><g><path d="M 15.515625 -15.828125 C 15.515625 -14.503906 15.0625 -13.347656 14.15625 -12.359375 C 13.25 -11.367188 12 -10.71875 10.40625 -10.40625 L 15.421875 -2.234375 C 15.816406 -1.566406 16.164062 -1.113281 16.46875 -0.875 C 16.78125 -0.644531 17.164062 -0.53125 17.625 -0.53125 L 17.8125 -0.53125 L 17.8125 0 L 13.75 0 L 7.625 -10.03125 L 6.1875 -10.03125 L 6.1875 -3.15625 C 6.1875 -2.351562 6.269531 -1.769531 6.4375 -1.40625 C 6.601562 -1.039062 6.863281 -0.800781 7.21875 -0.6875 C 7.582031 -0.582031 8.148438 -0.53125 8.921875 -0.53125 L 8.921875 0 L 0.53125 0 L 0.53125 -0.53125 C 1.289062 -0.53125 1.851562 -0.582031 2.21875 -0.6875 C 2.59375 -0.800781 2.863281 -1.046875 3.03125 -1.421875 C 3.195312 -1.796875 3.28125 -2.375 3.28125 -3.15625 L 3.28125 -17.9375 C 3.28125 -18.738281 3.191406 -19.320312 3.015625 -19.6875 C 2.835938 -20.0625 2.5625 -20.304688 2.1875 -20.421875 C 1.820312 -20.535156 1.269531 -20.59375 0.53125 -20.59375 L 0.53125 -21.125 L 9.328125 -21.125 C 10.484375 -21.125 11.535156 -20.894531 12.484375 -20.4375 C 13.429688 -19.988281 14.171875 -19.359375 14.703125 -18.546875 C 15.242188 -17.742188 15.515625 -16.835938 15.515625 -15.828125 Z M 6.1875 -19.609375 L 6.1875 -11.03125 L 7.21875 -11.03125 C 8.863281 -11.03125 10.078125 -11.472656 10.859375 -12.359375 C 11.648438 -13.242188 12.046875 -14.296875 12.046875 -15.515625 C 12.046875 -16.816406 11.691406 -17.894531 10.984375 -18.75 C 10.285156 -19.601562 9.335938 -20.03125 8.140625 -20.03125 C 7.441406 -20.03125 6.789062 -19.890625 6.1875 -19.609375 Z M 6.1875 -19.609375 "/></g></g></g><g fill="#ffbd59" fill-opacity="1"><g transform="translate(173.619097, 38.585737)"><g><path d="M 7.59375 -20.59375 C 6.820312 -20.59375 6.3125 -20.539062 6.0625 -20.4375 C 5.820312 -20.332031 5.703125 -20.125 5.703125 -19.8125 C 5.703125 -19.59375 5.753906 -19.375 5.859375 -19.15625 C 5.972656 -18.9375 6.039062 -18.804688 6.0625 -18.765625 L 10.09375 -10.6875 L 13.84375 -18.796875 C 13.988281 -19.171875 14.0625 -19.492188 14.0625 -19.765625 C 14.0625 -20.085938 13.9375 -20.304688 13.6875 -20.421875 C 13.4375 -20.535156 13.023438 -20.59375 12.453125 -20.59375 L 12.453125 -21.125 L 17.875 -21.125 L 17.875 -20.59375 C 17.101562 -20.550781 16.507812 -20.359375 16.09375 -20.015625 C 15.6875 -19.679688 15.253906 -19.03125 14.796875 -18.0625 L 10.625 -9.046875 L 10.625 -3.1875 C 10.625 -2.382812 10.707031 -1.789062 10.875 -1.40625 C 11.039062 -1.03125 11.300781 -0.789062 11.65625 -0.6875 C 12.019531 -0.582031 12.570312 -0.53125 13.3125 -0.53125 L 13.3125 0 L 5.015625 0 L 5.015625 -0.53125 C 5.753906 -0.550781 6.304688 -0.609375 6.671875 -0.703125 C 7.035156 -0.804688 7.300781 -1.046875 7.46875 -1.421875 C 7.632812 -1.796875 7.71875 -2.382812 7.71875 -3.1875 L 7.71875 -8.859375 L 2.8125 -18.703125 C 2.46875 -19.410156 2.144531 -19.882812 1.84375 -20.125 C 1.539062 -20.375 1.101562 -20.53125 0.53125 -20.59375 L 0.53125 -21.125 L 7.59375 -21.125 Z M 7.59375 -20.59375 "/></g></g></g><g fill="#ffbd59" fill-opacity="1"><g transform="translate(192.0116, 38.585737)"><g/></g></g><g fill="#ffbd59" fill-opacity="1"><g transform="translate(197.894723, 38.585737)"><g><path d="M 5.265625 -22.078125 L 5.265625 -21.4375 C 4.523438 -21.039062 3.972656 -20.5625 3.609375 -20 C 3.242188 -19.445312 3.0625 -18.921875 3.0625 -18.421875 C 3.0625 -18.140625 3.113281 -17.914062 3.21875 -17.75 C 3.320312 -17.582031 3.445312 -17.5 3.59375 -17.5 C 3.695312 -17.5 3.828125 -17.550781 3.984375 -17.65625 C 4.140625 -17.757812 4.328125 -17.8125 4.546875 -17.8125 C 5.003906 -17.8125 5.367188 -17.65625 5.640625 -17.34375 C 5.921875 -17.03125 6.0625 -16.648438 6.0625 -16.203125 C 6.0625 -15.679688 5.878906 -15.25 5.515625 -14.90625 C 5.160156 -14.570312 4.71875 -14.40625 4.1875 -14.40625 C 3.519531 -14.40625 2.929688 -14.703125 2.421875 -15.296875 C 1.921875 -15.898438 1.671875 -16.632812 1.671875 -17.5 C 1.671875 -18.34375 2.007812 -19.21875 2.6875 -20.125 C 3.375 -21.039062 4.234375 -21.691406 5.265625 -22.078125 Z M 5.265625 -22.078125 "/></g></g></g><g fill="#ffbd59" fill-opacity="1"><g transform="translate(205.635673, 38.585737)"><g><path d="M 15.640625 -5.890625 L 15.703125 -5.890625 L 15.703125 -17.96875 C 15.703125 -18.75 15.613281 -19.320312 15.4375 -19.6875 C 15.257812 -20.0625 14.976562 -20.304688 14.59375 -20.421875 C 14.21875 -20.535156 13.664062 -20.59375 12.9375 -20.59375 L 12.9375 -21.125 L 19.046875 -21.125 L 19.046875 -20.59375 C 18.285156 -20.59375 17.734375 -20.425781 17.390625 -20.09375 C 17.046875 -19.769531 16.875 -19.234375 16.875 -18.484375 L 16.875 0.34375 L 16.4375 0.34375 L 4.421875 -16.78125 L 4.359375 -16.78125 L 4.359375 -3.1875 C 4.359375 -2.425781 4.441406 -1.851562 4.609375 -1.46875 C 4.773438 -1.082031 5.035156 -0.832031 5.390625 -0.71875 C 5.742188 -0.613281 6.25 -0.550781 6.90625 -0.53125 L 7.34375 -0.53125 L 7.34375 0 L 0.8125 0 L 0.8125 -0.53125 C 1.675781 -0.570312 2.285156 -0.734375 2.640625 -1.015625 C 3.003906 -1.304688 3.1875 -1.882812 3.1875 -2.75 L 3.1875 -18.484375 C 3.101562 -18.585938 3.015625 -18.707031 2.921875 -18.84375 C 2.828125 -18.976562 2.71875 -19.117188 2.59375 -19.265625 C 2.207031 -19.796875 1.882812 -20.148438 1.625 -20.328125 C 1.363281 -20.503906 0.9375 -20.59375 0.34375 -20.59375 L 0.34375 -21.125 L 4.921875 -21.125 Z M 15.640625 -5.890625 "/></g></g></g><g fill="#ffbd59" fill-opacity="1"><g transform="translate(225.638292, 38.585737)"><g><path d="M 3.5625 -22.078125 C 4.21875 -22.078125 4.796875 -21.773438 5.296875 -21.171875 C 5.804688 -20.578125 6.0625 -19.847656 6.0625 -18.984375 C 6.0625 -18.140625 5.722656 -17.257812 5.046875 -16.34375 C 4.367188 -15.4375 3.515625 -14.789062 2.484375 -14.40625 L 2.484375 -15.046875 C 3.222656 -15.441406 3.769531 -15.914062 4.125 -16.46875 C 4.488281 -17.03125 4.671875 -17.5625 4.671875 -18.0625 C 4.671875 -18.34375 4.617188 -18.566406 4.515625 -18.734375 C 4.410156 -18.898438 4.289062 -18.984375 4.15625 -18.984375 C 4.050781 -18.984375 3.921875 -18.929688 3.765625 -18.828125 C 3.609375 -18.722656 3.414062 -18.671875 3.1875 -18.671875 C 2.738281 -18.671875 2.375 -18.828125 2.09375 -19.140625 C 1.8125 -19.453125 1.671875 -19.832031 1.671875 -20.28125 C 1.671875 -20.800781 1.847656 -21.226562 2.203125 -21.5625 C 2.566406 -21.90625 3.019531 -22.078125 3.5625 -22.078125 Z M 3.5625 -22.078125 "/></g></g></g><g fill="#ffbd59" fill-opacity="1"><g transform="translate(233.379243, 38.585737)"><g/></g></g><g fill="#ffbd59" fill-opacity="1"><g transform="translate(239.262365, 38.585737)"><g><path d="M 15.640625 -5.890625 L 15.703125 -5.890625 L 15.703125 -17.96875 C 15.703125 -18.75 15.613281 -19.320312 15.4375 -19.6875 C 15.257812 -20.0625 14.976562 -20.304688 14.59375 -20.421875 C 14.21875 -20.535156 13.664062 -20.59375 12.9375 -20.59375 L 12.9375 -21.125 L 19.046875 -21.125 L 19.046875 -20.59375 C 18.285156 -20.59375 17.734375 -20.425781 17.390625 -20.09375 C 17.046875 -19.769531 16.875 -19.234375 16.875 -18.484375 L 16.875 0.34375 L 16.4375 0.34375 L 4.421875 -16.78125 L 4.359375 -16.78125 L 4.359375 -3.1875 C 4.359375 -2.425781 4.441406 -1.851562 4.609375 -1.46875 C 4.773438 -1.082031 5.035156 -0.832031 5.390625 -0.71875 C 5.742188 -0.613281 6.25 -0.550781 6.90625 -0.53125 L 7.34375 -0.53125 L 7.34375 0 L 0.8125 0 L 0.8125 -0.53125 C 1.675781 -0.570312 2.285156 -0.734375 2.640625 -1.015625 C 3.003906 -1.304688 3.1875 -1.882812 3.1875 -2.75 L 3.1875 -18.484375 C 3.101562 -18.585938 3.015625 -18.707031 2.921875 -18.84375 C 2.828125 -18.976562 2.71875 -19.117188 2.59375 -19.265625 C 2.207031 -19.796875 1.882812 -20.148438 1.625 -20.328125 C 1.363281 -20.503906 0.9375 -20.59375 0.34375 -20.59375 L 0.34375 -21.125 L 4.921875 -21.125 Z M 15.640625 -5.890625 "/></g></g></g><g fill="#ffbd59" fill-opacity="1"><g transform="translate(259.264984, 38.585737)"><g><path d="M 8.328125 -20.59375 C 7.710938 -20.570312 7.238281 -20.5 6.90625 -20.375 C 6.570312 -20.25 6.328125 -20 6.171875 -19.625 C 6.023438 -19.257812 5.953125 -18.707031 5.953125 -17.96875 L 5.953125 -5.828125 C 5.953125 -4.296875 6.347656 -3.046875 7.140625 -2.078125 C 7.929688 -1.109375 9.113281 -0.625 10.6875 -0.625 C 11.820312 -0.625 12.78125 -0.882812 13.5625 -1.40625 C 14.34375 -1.9375 14.929688 -2.640625 15.328125 -3.515625 C 15.722656 -4.390625 15.921875 -5.34375 15.921875 -6.375 L 15.921875 -17.96875 C 15.921875 -18.726562 15.84375 -19.289062 15.6875 -19.65625 C 15.53125 -20.03125 15.285156 -20.273438 14.953125 -20.390625 C 14.628906 -20.503906 14.132812 -20.570312 13.46875 -20.59375 L 13.46875 -21.125 L 19.421875 -21.125 L 19.421875 -20.59375 C 18.816406 -20.570312 18.351562 -20.5 18.03125 -20.375 C 17.71875 -20.25 17.484375 -20 17.328125 -19.625 C 17.171875 -19.257812 17.09375 -18.707031 17.09375 -17.96875 L 17.09375 -6.28125 C 17.09375 -4.300781 16.515625 -2.679688 15.359375 -1.421875 C 14.203125 -0.160156 12.46875 0.46875 10.15625 0.46875 C 7.90625 0.46875 6.15625 -0.144531 4.90625 -1.375 C 3.65625 -2.601562 3.03125 -4.3125 3.03125 -6.5 L 3.03125 -17.96875 C 3.03125 -18.726562 2.953125 -19.289062 2.796875 -19.65625 C 2.648438 -20.03125 2.410156 -20.273438 2.078125 -20.390625 C 1.742188 -20.503906 1.257812 -20.570312 0.625 -20.59375 L 0.625 -21.125 L 8.328125 -21.125 Z M 8.328125 -20.59375 "/></g></g></g><g fill="#ffbd59" fill-opacity="1"><g transform="translate(279.267603, 38.585737)"><g><path d="M 16.109375 -16.328125 L 15.609375 -16.328125 C 15.566406 -17.617188 15.289062 -18.539062 14.78125 -19.09375 C 14.28125 -19.65625 13.421875 -19.9375 12.203125 -19.9375 L 9.84375 -19.9375 L 9.84375 -3.1875 C 9.84375 -2.382812 9.929688 -1.796875 10.109375 -1.421875 C 10.285156 -1.046875 10.550781 -0.804688 10.90625 -0.703125 C 11.269531 -0.609375 11.835938 -0.550781 12.609375 -0.53125 L 12.609375 0 L 4.1875 0 L 4.1875 -0.53125 C 4.945312 -0.53125 5.503906 -0.582031 5.859375 -0.6875 C 6.222656 -0.789062 6.492188 -1.023438 6.671875 -1.390625 C 6.847656 -1.765625 6.9375 -2.363281 6.9375 -3.1875 L 6.9375 -19.9375 L 4.609375 -19.9375 C 3.304688 -19.9375 2.414062 -19.640625 1.9375 -19.046875 C 1.46875 -18.460938 1.210938 -17.554688 1.171875 -16.328125 L 0.6875 -16.328125 L 0.6875 -21.125 L 16.109375 -21.125 Z M 16.109375 -16.328125 "/></g></g></g><g fill="#ffbd59" fill-opacity="1"><g transform="translate(296.04999, 38.585737)"><g><path d="M 6.09375 -21.578125 C 6.757812 -21.578125 7.335938 -21.507812 7.828125 -21.375 C 8.328125 -21.25 8.835938 -21.070312 9.359375 -20.84375 C 9.804688 -20.632812 10.113281 -20.53125 10.28125 -20.53125 C 10.820312 -20.53125 11.191406 -20.878906 11.390625 -21.578125 L 11.921875 -21.578125 L 11.921875 -14.671875 L 11.390625 -14.671875 C 11.328125 -15.953125 11.023438 -17.023438 10.484375 -17.890625 C 9.953125 -18.765625 9.316406 -19.398438 8.578125 -19.796875 C 7.835938 -20.203125 7.113281 -20.40625 6.40625 -20.40625 C 5.539062 -20.40625 4.8125 -20.140625 4.21875 -19.609375 C 3.632812 -19.085938 3.34375 -18.425781 3.34375 -17.625 C 3.34375 -16.875 3.523438 -16.195312 3.890625 -15.59375 C 4.265625 -15 4.796875 -14.425781 5.484375 -13.875 C 5.753906 -13.644531 6.488281 -13.128906 7.6875 -12.328125 C 8.84375 -11.546875 9.742188 -10.882812 10.390625 -10.34375 C 11.035156 -9.800781 11.578125 -9.191406 12.015625 -8.515625 C 12.304688 -8.054688 12.53125 -7.535156 12.6875 -6.953125 C 12.851562 -6.378906 12.9375 -5.828125 12.9375 -5.296875 C 12.9375 -4.222656 12.675781 -3.242188 12.15625 -2.359375 C 11.644531 -1.484375 10.945312 -0.789062 10.0625 -0.28125 C 9.175781 0.21875 8.195312 0.46875 7.125 0.46875 C 6.539062 0.46875 6.03125 0.40625 5.59375 0.28125 C 5.164062 0.15625 4.6875 -0.0195312 4.15625 -0.25 C 3.53125 -0.519531 3.082031 -0.65625 2.8125 -0.65625 C 2.195312 -0.65625 1.828125 -0.289062 1.703125 0.4375 L 1.109375 0.4375 L 1.109375 -6.65625 L 1.703125 -6.65625 C 1.765625 -5.351562 2.050781 -4.257812 2.5625 -3.375 C 3.082031 -2.488281 3.726562 -1.820312 4.5 -1.375 C 5.28125 -0.9375 6.082031 -0.71875 6.90625 -0.71875 C 7.851562 -0.71875 8.628906 -1.035156 9.234375 -1.671875 C 9.847656 -2.304688 10.15625 -3.132812 10.15625 -4.15625 C 10.15625 -5.40625 9.671875 -6.5 8.703125 -7.4375 C 8.179688 -7.925781 7.289062 -8.601562 6.03125 -9.46875 C 4.71875 -10.40625 3.800781 -11.109375 3.28125 -11.578125 C 2.539062 -12.242188 1.96875 -12.953125 1.5625 -13.703125 C 1.15625 -14.453125 0.953125 -15.316406 0.953125 -16.296875 C 0.953125 -17.835938 1.425781 -19.101562 2.375 -20.09375 C 3.332031 -21.082031 4.570312 -21.578125 6.09375 -21.578125 Z M 6.09375 -21.578125 "/></g></g></g><g fill="#000000" fill-opacity="1"><g transform="translate(143.434343, 57.988699)"><g><path d="M 6.75 -6.953125 L 6.515625 -6.953125 C 6.492188 -7.398438 6.367188 -7.742188 6.140625 -7.984375 C 5.910156 -8.234375 5.585938 -8.359375 5.171875 -8.359375 L 2.625 -8.359375 L 2.625 -4.890625 L 4.125 -4.890625 C 4.550781 -4.890625 4.851562 -4.976562 5.03125 -5.15625 C 5.207031 -5.34375 5.296875 -5.617188 5.296875 -5.984375 L 5.296875 -6.140625 L 5.53125 -6.140625 L 5.53125 -3.125 L 5.296875 -3.125 L 5.296875 -3.25 C 5.296875 -3.632812 5.226562 -3.921875 5.09375 -4.109375 C 4.957031 -4.296875 4.695312 -4.390625 4.3125 -4.390625 L 2.625 -4.390625 L 2.625 -1.328125 C 2.625 -0.992188 2.660156 -0.75 2.734375 -0.59375 C 2.804688 -0.4375 2.921875 -0.332031 3.078125 -0.28125 C 3.234375 -0.238281 3.476562 -0.21875 3.8125 -0.21875 L 3.8125 0 L 0.28125 0 L 0.28125 -0.21875 C 0.582031 -0.21875 0.8125 -0.242188 0.96875 -0.296875 C 1.125 -0.347656 1.234375 -0.453125 1.296875 -0.609375 C 1.367188 -0.765625 1.40625 -1.003906 1.40625 -1.328125 L 1.40625 -7.53125 C 1.40625 -7.875 1.375 -8.117188 1.3125 -8.265625 C 1.25 -8.410156 1.144531 -8.503906 1 -8.546875 C 0.851562 -8.585938 0.613281 -8.613281 0.28125 -8.625 L 0.28125 -8.84375 L 6.671875 -8.84375 Z M 6.75 -6.953125 "/></g></g></g><g fill="#000000" fill-opacity="1"><g transform="translate(150.464315, 57.988699)"><g><path d="M 6.5 -6.625 C 6.5 -6.070312 6.304688 -5.585938 5.921875 -5.171875 C 5.546875 -4.753906 5.023438 -4.484375 4.359375 -4.359375 L 6.453125 -0.9375 C 6.617188 -0.65625 6.765625 -0.460938 6.890625 -0.359375 C 7.023438 -0.265625 7.1875 -0.21875 7.375 -0.21875 L 7.453125 -0.21875 L 7.453125 0 L 5.765625 0 L 3.1875 -4.203125 L 2.59375 -4.203125 L 2.59375 -1.328125 C 2.59375 -0.984375 2.625 -0.734375 2.6875 -0.578125 C 2.757812 -0.429688 2.867188 -0.332031 3.015625 -0.28125 C 3.171875 -0.238281 3.410156 -0.21875 3.734375 -0.21875 L 3.734375 0 L 0.21875 0 L 0.21875 -0.21875 C 0.539062 -0.21875 0.78125 -0.238281 0.9375 -0.28125 C 1.09375 -0.332031 1.203125 -0.4375 1.265625 -0.59375 C 1.335938 -0.75 1.375 -0.992188 1.375 -1.328125 L 1.375 -7.515625 C 1.375 -7.847656 1.335938 -8.09375 1.265625 -8.25 C 1.191406 -8.40625 1.078125 -8.503906 0.921875 -8.546875 C 0.765625 -8.597656 0.53125 -8.625 0.21875 -8.625 L 0.21875 -8.84375 L 3.90625 -8.84375 C 4.382812 -8.84375 4.820312 -8.75 5.21875 -8.5625 C 5.625 -8.375 5.9375 -8.109375 6.15625 -7.765625 C 6.382812 -7.429688 6.5 -7.050781 6.5 -6.625 Z M 2.59375 -8.203125 L 2.59375 -4.609375 L 3.015625 -4.609375 C 3.710938 -4.609375 4.222656 -4.796875 4.546875 -5.171875 C 4.878906 -5.546875 5.046875 -5.988281 5.046875 -6.5 C 5.046875 -7.039062 4.894531 -7.488281 4.59375 -7.84375 C 4.300781 -8.207031 3.90625 -8.390625 3.40625 -8.390625 C 3.113281 -8.390625 2.84375 -8.328125 2.59375 -8.203125 Z M 2.59375 -8.203125 "/></g></g></g><g fill="#000000" fill-opacity="1"><g transform="translate(158.168754, 57.988699)"><g><path d="M 3.859375 -9.046875 C 4.609375 -9.046875 5.242188 -8.828125 5.765625 -8.390625 C 6.296875 -7.953125 6.691406 -7.378906 6.953125 -6.671875 C 7.222656 -5.960938 7.359375 -5.210938 7.359375 -4.421875 C 7.359375 -3.617188 7.222656 -2.863281 6.953125 -2.15625 C 6.691406 -1.457031 6.296875 -0.890625 5.765625 -0.453125 C 5.242188 -0.0234375 4.609375 0.1875 3.859375 0.1875 C 3.128906 0.1875 2.5 -0.0195312 1.96875 -0.4375 C 1.445312 -0.851562 1.046875 -1.410156 0.765625 -2.109375 C 0.484375 -2.816406 0.34375 -3.585938 0.34375 -4.421875 C 0.34375 -5.210938 0.472656 -5.960938 0.734375 -6.671875 C 1.003906 -7.378906 1.398438 -7.953125 1.921875 -8.390625 C 2.453125 -8.828125 3.097656 -9.046875 3.859375 -9.046875 Z M 1.796875 -4.421875 C 1.796875 -2.960938 1.957031 -1.90625 2.28125 -1.25 C 2.601562 -0.59375 3.128906 -0.265625 3.859375 -0.265625 C 4.617188 -0.265625 5.148438 -0.613281 5.453125 -1.3125 C 5.753906 -2.007812 5.90625 -3.046875 5.90625 -4.421875 C 5.90625 -5.910156 5.738281 -6.972656 5.40625 -7.609375 C 5.070312 -8.253906 4.550781 -8.578125 3.84375 -8.578125 C 3.238281 -8.578125 2.785156 -8.359375 2.484375 -7.921875 C 2.191406 -7.492188 2.003906 -6.984375 1.921875 -6.390625 C 1.835938 -5.804688 1.796875 -5.148438 1.796875 -4.421875 Z M 1.796875 -4.421875 "/></g></g></g><g fill="#000000" fill-opacity="1"><g transform="translate(165.873193, 57.988699)"><g><path d="M 4.875 -2.328125 L 4.90625 -2.328125 L 7.265625 -8.84375 L 9.421875 -8.84375 L 9.421875 -8.625 C 9.171875 -8.613281 8.976562 -8.582031 8.84375 -8.53125 C 8.71875 -8.476562 8.625 -8.375 8.5625 -8.21875 C 8.507812 -8.0625 8.484375 -7.828125 8.484375 -7.515625 L 8.484375 -1.328125 C 8.484375 -1.015625 8.507812 -0.78125 8.5625 -0.625 C 8.625 -0.46875 8.71875 -0.363281 8.84375 -0.3125 C 8.976562 -0.257812 9.171875 -0.226562 9.421875 -0.21875 L 9.421875 0 L 6.15625 0 L 6.15625 -0.21875 C 6.445312 -0.21875 6.664062 -0.238281 6.8125 -0.28125 C 6.96875 -0.332031 7.082031 -0.4375 7.15625 -0.59375 C 7.226562 -0.757812 7.265625 -1.003906 7.265625 -1.328125 L 7.265625 -7.359375 L 7.234375 -7.359375 L 4.59375 0 L 4.4375 0 L 1.8125 -7.203125 L 1.796875 -7.203125 L 1.796875 -1.328125 C 1.796875 -0.992188 1.828125 -0.75 1.890625 -0.59375 C 1.960938 -0.4375 2.066406 -0.335938 2.203125 -0.296875 C 2.347656 -0.253906 2.566406 -0.226562 2.859375 -0.21875 L 2.859375 0 L 0.265625 0 L 0.265625 -0.21875 C 0.535156 -0.226562 0.742188 -0.253906 0.890625 -0.296875 C 1.035156 -0.347656 1.140625 -0.453125 1.203125 -0.609375 C 1.265625 -0.765625 1.296875 -1.003906 1.296875 -1.328125 L 1.296875 -7.515625 C 1.296875 -7.835938 1.265625 -8.070312 1.203125 -8.21875 C 1.140625 -8.375 1.035156 -8.476562 0.890625 -8.53125 C 0.742188 -8.582031 0.535156 -8.613281 0.265625 -8.625 L 0.265625 -8.84375 L 2.515625 -8.84375 Z M 4.875 -2.328125 "/></g></g></g><g fill="#000000" fill-opacity="1"><g transform="translate(175.471315, 57.988699)"><g/></g></g><g fill="#000000" fill-opacity="1"><g transform="translate(177.9357, 57.988699)"><g><path d="M 6.75 -6.828125 L 6.53125 -6.828125 C 6.519531 -7.378906 6.40625 -7.769531 6.1875 -8 C 5.976562 -8.238281 5.617188 -8.359375 5.109375 -8.359375 L 4.125 -8.359375 L 4.125 -1.328125 C 4.125 -0.992188 4.160156 -0.75 4.234375 -0.59375 C 4.304688 -0.4375 4.414062 -0.335938 4.5625 -0.296875 C 4.71875 -0.253906 4.957031 -0.226562 5.28125 -0.21875 L 5.28125 0 L 1.75 0 L 1.75 -0.21875 C 2.070312 -0.21875 2.304688 -0.238281 2.453125 -0.28125 C 2.609375 -0.320312 2.722656 -0.421875 2.796875 -0.578125 C 2.867188 -0.734375 2.90625 -0.984375 2.90625 -1.328125 L 2.90625 -8.359375 L 1.9375 -8.359375 C 1.382812 -8.359375 1.007812 -8.234375 0.8125 -7.984375 C 0.613281 -7.734375 0.507812 -7.347656 0.5 -6.828125 L 0.28125 -6.828125 L 0.28125 -8.84375 L 6.75 -8.84375 Z M 6.75 -6.828125 "/></g></g></g><g fill="#000000" fill-opacity="1"><g transform="translate(184.965672, 57.988699)"><g><path d="M 3.703125 -8.625 C 3.398438 -8.625 3.171875 -8.597656 3.015625 -8.546875 C 2.867188 -8.503906 2.757812 -8.40625 2.6875 -8.25 C 2.613281 -8.09375 2.578125 -7.847656 2.578125 -7.515625 L 2.578125 -4.890625 L 5.75 -4.890625 L 5.75 -7.515625 C 5.75 -7.859375 5.710938 -8.101562 5.640625 -8.25 C 5.566406 -8.40625 5.453125 -8.503906 5.296875 -8.546875 C 5.148438 -8.597656 4.921875 -8.625 4.609375 -8.625 L 4.609375 -8.84375 L 8.125 -8.84375 L 8.125 -8.625 L 8.046875 -8.625 C 7.753906 -8.613281 7.535156 -8.582031 7.390625 -8.53125 C 7.253906 -8.488281 7.148438 -8.390625 7.078125 -8.234375 C 7.003906 -8.078125 6.96875 -7.835938 6.96875 -7.515625 L 6.96875 -1.328125 C 6.96875 -0.992188 7.003906 -0.75 7.078125 -0.59375 C 7.148438 -0.4375 7.265625 -0.332031 7.421875 -0.28125 C 7.578125 -0.238281 7.8125 -0.21875 8.125 -0.21875 L 8.125 0 L 4.609375 0 L 4.609375 -0.21875 L 4.71875 -0.21875 C 5 -0.21875 5.207031 -0.242188 5.34375 -0.296875 C 5.488281 -0.359375 5.59375 -0.46875 5.65625 -0.625 C 5.71875 -0.789062 5.75 -1.023438 5.75 -1.328125 L 5.75 -4.390625 L 2.578125 -4.390625 L 2.578125 -1.328125 C 2.578125 -1.023438 2.609375 -0.789062 2.671875 -0.625 C 2.742188 -0.46875 2.847656 -0.359375 2.984375 -0.296875 C 3.117188 -0.242188 3.320312 -0.21875 3.59375 -0.21875 L 3.703125 -0.21875 L 3.703125 0 L 0.234375 0 L 0.234375 -0.21875 L 0.34375 -0.21875 C 0.601562 -0.21875 0.804688 -0.242188 0.953125 -0.296875 C 1.097656 -0.359375 1.203125 -0.46875 1.265625 -0.625 C 1.328125 -0.78125 1.359375 -1.015625 1.359375 -1.328125 L 1.359375 -7.515625 C 1.359375 -7.960938 1.285156 -8.257812 1.140625 -8.40625 C 1.003906 -8.550781 0.765625 -8.625 0.421875 -8.625 L 0.234375 -8.625 L 0.234375 -8.84375 L 3.703125 -8.84375 Z M 3.703125 -8.625 "/></g></g></g><g fill="#000000" fill-opacity="1"><g transform="translate(193.344577, 57.988699)"><g><path d="M 6.125 -6.921875 L 5.890625 -6.921875 C 5.835938 -7.316406 5.757812 -7.613281 5.65625 -7.8125 C 5.5625 -8.019531 5.414062 -8.160156 5.21875 -8.234375 C 5.03125 -8.316406 4.757812 -8.359375 4.40625 -8.359375 L 2.546875 -8.359375 L 2.546875 -4.890625 L 4 -4.890625 C 4.332031 -4.890625 4.582031 -4.9375 4.75 -5.03125 C 4.925781 -5.132812 5.039062 -5.28125 5.09375 -5.46875 C 5.15625 -5.65625 5.1875 -5.90625 5.1875 -6.21875 L 5.40625 -6.21875 L 5.40625 -3.125 L 5.1875 -3.125 C 5.1875 -3.5625 5.117188 -3.878906 4.984375 -4.078125 C 4.859375 -4.285156 4.601562 -4.390625 4.21875 -4.390625 L 2.546875 -4.390625 L 2.546875 -1.171875 C 2.546875 -0.898438 2.582031 -0.71875 2.65625 -0.625 C 2.726562 -0.539062 2.878906 -0.5 3.109375 -0.5 L 4.484375 -0.5 C 5.035156 -0.5 5.457031 -0.644531 5.75 -0.9375 C 6.039062 -1.238281 6.285156 -1.679688 6.484375 -2.265625 L 6.703125 -2.203125 L 6.03125 0 L 0.1875 0 L 0.1875 -0.21875 C 0.5 -0.21875 0.726562 -0.238281 0.875 -0.28125 C 1.03125 -0.332031 1.144531 -0.4375 1.21875 -0.59375 C 1.289062 -0.75 1.328125 -0.992188 1.328125 -1.328125 L 1.328125 -7.53125 C 1.328125 -7.84375 1.296875 -8.070312 1.234375 -8.21875 C 1.171875 -8.375 1.066406 -8.476562 0.921875 -8.53125 C 0.785156 -8.59375 0.578125 -8.625 0.296875 -8.625 L 0.1875 -8.625 L 0.1875 -8.84375 L 5.984375 -8.84375 Z M 6.125 -6.921875 "/></g></g></g><g fill="#000000" fill-opacity="1"><g transform="translate(200.37455, 57.988699)"><g/></g></g><g fill="#000000" fill-opacity="1"><g transform="translate(202.838935, 57.988699)"><g><path d="M 3.703125 -8.625 C 3.398438 -8.625 3.171875 -8.597656 3.015625 -8.546875 C 2.867188 -8.503906 2.757812 -8.40625 2.6875 -8.25 C 2.613281 -8.09375 2.578125 -7.847656 2.578125 -7.515625 L 2.578125 -4.890625 L 5.75 -4.890625 L 5.75 -7.515625 C 5.75 -7.859375 5.710938 -8.101562 5.640625 -8.25 C 5.566406 -8.40625 5.453125 -8.503906 5.296875 -8.546875 C 5.148438 -8.597656 4.921875 -8.625 4.609375 -8.625 L 4.609375 -8.84375 L 8.125 -8.84375 L 8.125 -8.625 L 8.046875 -8.625 C 7.753906 -8.613281 7.535156 -8.582031 7.390625 -8.53125 C 7.253906 -8.488281 7.148438 -8.390625 7.078125 -8.234375 C 7.003906 -8.078125 6.96875 -7.835938 6.96875 -7.515625 L 6.96875 -1.328125 C 6.96875 -0.992188 7.003906 -0.75 7.078125 -0.59375 C 7.148438 -0.4375 7.265625 -0.332031 7.421875 -0.28125 C 7.578125 -0.238281 7.8125 -0.21875 8.125 -0.21875 L 8.125 0 L 4.609375 0 L 4.609375 -0.21875 L 4.71875 -0.21875 C 5 -0.21875 5.207031 -0.242188 5.34375 -0.296875 C 5.488281 -0.359375 5.59375 -0.46875 5.65625 -0.625 C 5.71875 -0.789062 5.75 -1.023438 5.75 -1.328125 L 5.75 -4.390625 L 2.578125 -4.390625 L 2.578125 -1.328125 C 2.578125 -1.023438 2.609375 -0.789062 2.671875 -0.625 C 2.742188 -0.46875 2.847656 -0.359375 2.984375 -0.296875 C 3.117188 -0.242188 3.320312 -0.21875 3.59375 -0.21875 L 3.703125 -0.21875 L 3.703125 0 L 0.234375 0 L 0.234375 -0.21875 L 0.34375 -0.21875 C 0.601562 -0.21875 0.804688 -0.242188 0.953125 -0.296875 C 1.097656 -0.359375 1.203125 -0.46875 1.265625 -0.625 C 1.328125 -0.78125 1.359375 -1.015625 1.359375 -1.328125 L 1.359375 -7.515625 C 1.359375 -7.960938 1.285156 -8.257812 1.140625 -8.40625 C 1.003906 -8.550781 0.765625 -8.625 0.421875 -8.625 L 0.234375 -8.625 L 0.234375 -8.84375 L 3.703125 -8.84375 Z M 3.703125 -8.625 "/></g></g></g><g fill="#000000" fill-opacity="1"><g transform="translate(211.217839, 57.988699)"><g><path d="M 3.859375 -9.046875 C 4.609375 -9.046875 5.242188 -8.828125 5.765625 -8.390625 C 6.296875 -7.953125 6.691406 -7.378906 6.953125 -6.671875 C 7.222656 -5.960938 7.359375 -5.210938 7.359375 -4.421875 C 7.359375 -3.617188 7.222656 -2.863281 6.953125 -2.15625 C 6.691406 -1.457031 6.296875 -0.890625 5.765625 -0.453125 C 5.242188 -0.0234375 4.609375 0.1875 3.859375 0.1875 C 3.128906 0.1875 2.5 -0.0195312 1.96875 -0.4375 C 1.445312 -0.851562 1.046875 -1.410156 0.765625 -2.109375 C 0.484375 -2.816406 0.34375 -3.585938 0.34375 -4.421875 C 0.34375 -5.210938 0.472656 -5.960938 0.734375 -6.671875 C 1.003906 -7.378906 1.398438 -7.953125 1.921875 -8.390625 C 2.453125 -8.828125 3.097656 -9.046875 3.859375 -9.046875 Z M 1.796875 -4.421875 C 1.796875 -2.960938 1.957031 -1.90625 2.28125 -1.25 C 2.601562 -0.59375 3.128906 -0.265625 3.859375 -0.265625 C 4.617188 -0.265625 5.148438 -0.613281 5.453125 -1.3125 C 5.753906 -2.007812 5.90625 -3.046875 5.90625 -4.421875 C 5.90625 -5.910156 5.738281 -6.972656 5.40625 -7.609375 C 5.070312 -8.253906 4.550781 -8.578125 3.84375 -8.578125 C 3.238281 -8.578125 2.785156 -8.359375 2.484375 -7.921875 C 2.191406 -7.492188 2.003906 -6.984375 1.921875 -6.390625 C 1.835938 -5.804688 1.796875 -5.148438 1.796875 -4.421875 Z M 1.796875 -4.421875 "/></g></g></g><g fill="#000000" fill-opacity="1"><g transform="translate(218.922278, 57.988699)"><g><path d="M 3.484375 -8.625 C 3.222656 -8.613281 3.023438 -8.582031 2.890625 -8.53125 C 2.753906 -8.476562 2.648438 -8.375 2.578125 -8.21875 C 2.515625 -8.0625 2.484375 -7.828125 2.484375 -7.515625 L 2.484375 -2.4375 C 2.484375 -1.800781 2.648438 -1.28125 2.984375 -0.875 C 3.316406 -0.46875 3.8125 -0.265625 4.46875 -0.265625 C 4.945312 -0.265625 5.347656 -0.375 5.671875 -0.59375 C 6.003906 -0.8125 6.253906 -1.101562 6.421875 -1.46875 C 6.585938 -1.832031 6.671875 -2.234375 6.671875 -2.671875 L 6.671875 -7.515625 C 6.671875 -7.835938 6.632812 -8.078125 6.5625 -8.234375 C 6.5 -8.390625 6.398438 -8.488281 6.265625 -8.53125 C 6.128906 -8.582031 5.921875 -8.613281 5.640625 -8.625 L 5.640625 -8.84375 L 8.125 -8.84375 L 8.125 -8.625 C 7.875 -8.613281 7.679688 -8.582031 7.546875 -8.53125 C 7.421875 -8.476562 7.320312 -8.375 7.25 -8.21875 C 7.1875 -8.0625 7.15625 -7.828125 7.15625 -7.515625 L 7.15625 -2.625 C 7.15625 -1.800781 6.910156 -1.125 6.421875 -0.59375 C 5.941406 -0.0703125 5.21875 0.1875 4.25 0.1875 C 3.3125 0.1875 2.578125 -0.0664062 2.046875 -0.578125 C 1.523438 -1.085938 1.265625 -1.800781 1.265625 -2.71875 L 1.265625 -7.515625 C 1.265625 -7.835938 1.234375 -8.078125 1.171875 -8.234375 C 1.109375 -8.390625 1.003906 -8.488281 0.859375 -8.53125 C 0.722656 -8.582031 0.523438 -8.613281 0.265625 -8.625 L 0.265625 -8.84375 L 3.484375 -8.84375 Z M 3.484375 -8.625 "/></g></g></g><g fill="#000000" fill-opacity="1"><g transform="translate(227.301183, 57.988699)"><g><path d="M 2.5625 -9.046875 C 2.832031 -9.046875 3.070312 -9.015625 3.28125 -8.953125 C 3.488281 -8.898438 3.703125 -8.828125 3.921875 -8.734375 C 4.109375 -8.640625 4.238281 -8.59375 4.3125 -8.59375 C 4.53125 -8.59375 4.679688 -8.742188 4.765625 -9.046875 L 5 -9.046875 L 5 -6.140625 L 4.765625 -6.140625 C 4.742188 -6.679688 4.617188 -7.132812 4.390625 -7.5 C 4.171875 -7.863281 3.90625 -8.128906 3.59375 -8.296875 C 3.28125 -8.460938 2.976562 -8.546875 2.6875 -8.546875 C 2.320312 -8.546875 2.015625 -8.4375 1.765625 -8.21875 C 1.523438 -8 1.40625 -7.71875 1.40625 -7.375 C 1.40625 -7.0625 1.484375 -6.78125 1.640625 -6.53125 C 1.796875 -6.28125 2.015625 -6.039062 2.296875 -5.8125 C 2.410156 -5.71875 2.71875 -5.5 3.21875 -5.15625 C 3.695312 -4.832031 4.070312 -4.554688 4.34375 -4.328125 C 4.625 -4.109375 4.851562 -3.851562 5.03125 -3.5625 C 5.15625 -3.375 5.25 -3.160156 5.3125 -2.921875 C 5.382812 -2.679688 5.421875 -2.445312 5.421875 -2.21875 C 5.421875 -1.769531 5.3125 -1.359375 5.09375 -0.984375 C 4.875 -0.617188 4.578125 -0.332031 4.203125 -0.125 C 3.835938 0.0820312 3.429688 0.1875 2.984375 0.1875 C 2.742188 0.1875 2.53125 0.160156 2.34375 0.109375 C 2.164062 0.0546875 1.960938 -0.015625 1.734375 -0.109375 C 1.472656 -0.210938 1.289062 -0.265625 1.1875 -0.265625 C 0.925781 -0.265625 0.769531 -0.113281 0.71875 0.1875 L 0.46875 0.1875 L 0.46875 -2.78125 L 0.71875 -2.78125 C 0.738281 -2.238281 0.859375 -1.78125 1.078125 -1.40625 C 1.296875 -1.039062 1.566406 -0.765625 1.890625 -0.578125 C 2.210938 -0.390625 2.546875 -0.296875 2.890625 -0.296875 C 3.285156 -0.296875 3.609375 -0.429688 3.859375 -0.703125 C 4.117188 -0.972656 4.25 -1.316406 4.25 -1.734375 C 4.25 -2.265625 4.046875 -2.722656 3.640625 -3.109375 C 3.421875 -3.316406 3.050781 -3.601562 2.53125 -3.96875 C 1.976562 -4.351562 1.59375 -4.644531 1.375 -4.84375 C 1.0625 -5.125 0.820312 -5.421875 0.65625 -5.734375 C 0.488281 -6.054688 0.40625 -6.421875 0.40625 -6.828125 C 0.40625 -7.472656 0.601562 -8.003906 1 -8.421875 C 1.394531 -8.835938 1.914062 -9.046875 2.5625 -9.046875 Z M 2.5625 -9.046875 "/></g></g></g><g fill="#000000" fill-opacity="1"><g transform="translate(233.111938, 57.988699)"><g><path d="M 6.125 -6.921875 L 5.890625 -6.921875 C 5.835938 -7.316406 5.757812 -7.613281 5.65625 -7.8125 C 5.5625 -8.019531 5.414062 -8.160156 5.21875 -8.234375 C 5.03125 -8.316406 4.757812 -8.359375 4.40625 -8.359375 L 2.546875 -8.359375 L 2.546875 -4.890625 L 4 -4.890625 C 4.332031 -4.890625 4.582031 -4.9375 4.75 -5.03125 C 4.925781 -5.132812 5.039062 -5.28125 5.09375 -5.46875 C 5.15625 -5.65625 5.1875 -5.90625 5.1875 -6.21875 L 5.40625 -6.21875 L 5.40625 -3.125 L 5.1875 -3.125 C 5.1875 -3.5625 5.117188 -3.878906 4.984375 -4.078125 C 4.859375 -4.285156 4.601562 -4.390625 4.21875 -4.390625 L 2.546875 -4.390625 L 2.546875 -1.171875 C 2.546875 -0.898438 2.582031 -0.71875 2.65625 -0.625 C 2.726562 -0.539062 2.878906 -0.5 3.109375 -0.5 L 4.484375 -0.5 C 5.035156 -0.5 5.457031 -0.644531 5.75 -0.9375 C 6.039062 -1.238281 6.285156 -1.679688 6.484375 -2.265625 L 6.703125 -2.203125 L 6.03125 0 L 0.1875 0 L 0.1875 -0.21875 C 0.5 -0.21875 0.726562 -0.238281 0.875 -0.28125 C 1.03125 -0.332031 1.144531 -0.4375 1.21875 -0.59375 C 1.289062 -0.75 1.328125 -0.992188 1.328125 -1.328125 L 1.328125 -7.53125 C 1.328125 -7.84375 1.296875 -8.070312 1.234375 -8.21875 C 1.171875 -8.375 1.066406 -8.476562 0.921875 -8.53125 C 0.785156 -8.59375 0.578125 -8.625 0.296875 -8.625 L 0.1875 -8.625 L 0.1875 -8.84375 L 5.984375 -8.84375 Z M 6.125 -6.921875 "/></g></g></g><g fill="#000000" fill-opacity="1"><g transform="translate(240.14191, 57.988699)"><g/></g></g><g fill="#000000" fill-opacity="1"><g transform="translate(242.606295, 57.988699)"><g><path d="M 3.859375 -9.046875 C 4.609375 -9.046875 5.242188 -8.828125 5.765625 -8.390625 C 6.296875 -7.953125 6.691406 -7.378906 6.953125 -6.671875 C 7.222656 -5.960938 7.359375 -5.210938 7.359375 -4.421875 C 7.359375 -3.617188 7.222656 -2.863281 6.953125 -2.15625 C 6.691406 -1.457031 6.296875 -0.890625 5.765625 -0.453125 C 5.242188 -0.0234375 4.609375 0.1875 3.859375 0.1875 C 3.128906 0.1875 2.5 -0.0195312 1.96875 -0.4375 C 1.445312 -0.851562 1.046875 -1.410156 0.765625 -2.109375 C 0.484375 -2.816406 0.34375 -3.585938 0.34375 -4.421875 C 0.34375 -5.210938 0.472656 -5.960938 0.734375 -6.671875 C 1.003906 -7.378906 1.398438 -7.953125 1.921875 -8.390625 C 2.453125 -8.828125 3.097656 -9.046875 3.859375 -9.046875 Z M 1.796875 -4.421875 C 1.796875 -2.960938 1.957031 -1.90625 2.28125 -1.25 C 2.601562 -0.59375 3.128906 -0.265625 3.859375 -0.265625 C 4.617188 -0.265625 5.148438 -0.613281 5.453125 -1.3125 C 5.753906 -2.007812 5.90625 -3.046875 5.90625 -4.421875 C 5.90625 -5.910156 5.738281 -6.972656 5.40625 -7.609375 C 5.070312 -8.253906 4.550781 -8.578125 3.84375 -8.578125 C 3.238281 -8.578125 2.785156 -8.359375 2.484375 -7.921875 C 2.191406 -7.492188 2.003906 -6.984375 1.921875 -6.390625 C 1.835938 -5.804688 1.796875 -5.148438 1.796875 -4.421875 Z M 1.796875 -4.421875 "/></g></g></g><g fill="#000000" fill-opacity="1"><g transform="translate(250.310734, 57.988699)"><g><path d="M 6.75 -6.953125 L 6.515625 -6.953125 C 6.492188 -7.398438 6.367188 -7.742188 6.140625 -7.984375 C 5.910156 -8.234375 5.585938 -8.359375 5.171875 -8.359375 L 2.625 -8.359375 L 2.625 -4.890625 L 4.125 -4.890625 C 4.550781 -4.890625 4.851562 -4.976562 5.03125 -5.15625 C 5.207031 -5.34375 5.296875 -5.617188 5.296875 -5.984375 L 5.296875 -6.140625 L 5.53125 -6.140625 L 5.53125 -3.125 L 5.296875 -3.125 L 5.296875 -3.25 C 5.296875 -3.632812 5.226562 -3.921875 5.09375 -4.109375 C 4.957031 -4.296875 4.695312 -4.390625 4.3125 -4.390625 L 2.625 -4.390625 L 2.625 -1.328125 C 2.625 -0.992188 2.660156 -0.75 2.734375 -0.59375 C 2.804688 -0.4375 2.921875 -0.332031 3.078125 -0.28125 C 3.234375 -0.238281 3.476562 -0.21875 3.8125 -0.21875 L 3.8125 0 L 0.28125 0 L 0.28125 -0.21875 C 0.582031 -0.21875 0.8125 -0.242188 0.96875 -0.296875 C 1.125 -0.347656 1.234375 -0.453125 1.296875 -0.609375 C 1.367188 -0.765625 1.40625 -1.003906 1.40625 -1.328125 L 1.40625 -7.53125 C 1.40625 -7.875 1.375 -8.117188 1.3125 -8.265625 C 1.25 -8.410156 1.144531 -8.503906 1 -8.546875 C 0.851562 -8.585938 0.613281 -8.613281 0.28125 -8.625 L 0.28125 -8.84375 L 6.671875 -8.84375 Z M 6.75 -6.953125 "/></g></g></g><g fill="#000000" fill-opacity="1"><g transform="translate(257.340706, 57.988699)"><g/></g></g><g fill="#000000" fill-opacity="1"><g transform="translate(259.805091, 57.988699)"><g><path d="M 4.875 -2.328125 L 4.90625 -2.328125 L 7.265625 -8.84375 L 9.421875 -8.84375 L 9.421875 -8.625 C 9.171875 -8.613281 8.976562 -8.582031 8.84375 -8.53125 C 8.71875 -8.476562 8.625 -8.375 8.5625 -8.21875 C 8.507812 -8.0625 8.484375 -7.828125 8.484375 -7.515625 L 8.484375 -1.328125 C 8.484375 -1.015625 8.507812 -0.78125 8.5625 -0.625 C 8.625 -0.46875 8.71875 -0.363281 8.84375 -0.3125 C 8.976562 -0.257812 9.171875 -0.226562 9.421875 -0.21875 L 9.421875 0 L 6.15625 0 L 6.15625 -0.21875 C 6.445312 -0.21875 6.664062 -0.238281 6.8125 -0.28125 C 6.96875 -0.332031 7.082031 -0.4375 7.15625 -0.59375 C 7.226562 -0.757812 7.265625 -1.003906 7.265625 -1.328125 L 7.265625 -7.359375 L 7.234375 -7.359375 L 4.59375 0 L 4.4375 0 L 1.8125 -7.203125 L 1.796875 -7.203125 L 1.796875 -1.328125 C 1.796875 -0.992188 1.828125 -0.75 1.890625 -0.59375 C 1.960938 -0.4375 2.066406 -0.335938 2.203125 -0.296875 C 2.347656 -0.253906 2.566406 -0.226562 2.859375 -0.21875 L 2.859375 0 L 0.265625 0 L 0.265625 -0.21875 C 0.535156 -0.226562 0.742188 -0.253906 0.890625 -0.296875 C 1.035156 -0.347656 1.140625 -0.453125 1.203125 -0.609375 C 1.265625 -0.765625 1.296875 -1.003906 1.296875 -1.328125 L 1.296875 -7.515625 C 1.296875 -7.835938 1.265625 -8.070312 1.203125 -8.21875 C 1.140625 -8.375 1.035156 -8.476562 0.890625 -8.53125 C 0.742188 -8.582031 0.535156 -8.613281 0.265625 -8.625 L 0.265625 -8.84375 L 2.515625 -8.84375 Z M 4.875 -2.328125 "/></g></g></g><g fill="#000000" fill-opacity="1"><g transform="translate(269.403213, 57.988699)"><g><path d="M 3.59375 -8.625 C 3.3125 -8.625 3.09375 -8.597656 2.9375 -8.546875 C 2.789062 -8.503906 2.679688 -8.40625 2.609375 -8.25 C 2.535156 -8.09375 2.5 -7.847656 2.5 -7.515625 L 2.5 -1.328125 C 2.5 -0.992188 2.535156 -0.75 2.609375 -0.59375 C 2.679688 -0.4375 2.789062 -0.335938 2.9375 -0.296875 C 3.082031 -0.253906 3.300781 -0.226562 3.59375 -0.21875 L 3.59375 0 L 0.1875 0 L 0.1875 -0.21875 C 0.476562 -0.21875 0.695312 -0.242188 0.84375 -0.296875 C 1 -0.347656 1.109375 -0.453125 1.171875 -0.609375 C 1.242188 -0.765625 1.28125 -1.003906 1.28125 -1.328125 L 1.28125 -7.515625 C 1.28125 -7.847656 1.242188 -8.085938 1.171875 -8.234375 C 1.097656 -8.390625 0.988281 -8.488281 0.84375 -8.53125 C 0.707031 -8.582031 0.488281 -8.613281 0.1875 -8.625 L 0.1875 -8.84375 L 3.59375 -8.84375 Z M 3.59375 -8.625 "/></g></g></g><g fill="#000000" fill-opacity="1"><g transform="translate(273.190581, 57.988699)"><g><path d="M 6.546875 -2.46875 L 6.578125 -2.46875 L 6.578125 -7.515625 C 6.578125 -7.847656 6.539062 -8.09375 6.46875 -8.25 C 6.394531 -8.40625 6.273438 -8.503906 6.109375 -8.546875 C 5.953125 -8.597656 5.722656 -8.625 5.421875 -8.625 L 5.421875 -8.84375 L 7.96875 -8.84375 L 7.96875 -8.625 C 7.65625 -8.625 7.425781 -8.550781 7.28125 -8.40625 C 7.132812 -8.269531 7.0625 -8.050781 7.0625 -7.75 L 7.0625 0.140625 L 6.890625 0.140625 L 1.859375 -7.03125 L 1.828125 -7.03125 L 1.828125 -1.328125 C 1.828125 -1.015625 1.859375 -0.773438 1.921875 -0.609375 C 1.992188 -0.453125 2.101562 -0.347656 2.25 -0.296875 C 2.40625 -0.253906 2.617188 -0.226562 2.890625 -0.21875 L 3.078125 -0.21875 L 3.078125 0 L 0.34375 0 L 0.34375 -0.21875 C 0.695312 -0.238281 0.945312 -0.304688 1.09375 -0.421875 C 1.25 -0.546875 1.328125 -0.789062 1.328125 -1.15625 L 1.328125 -7.75 C 1.296875 -7.789062 1.257812 -7.835938 1.21875 -7.890625 C 1.1875 -7.941406 1.144531 -8 1.09375 -8.0625 C 0.925781 -8.289062 0.785156 -8.441406 0.671875 -8.515625 C 0.566406 -8.585938 0.390625 -8.625 0.140625 -8.625 L 0.140625 -8.84375 L 2.0625 -8.84375 Z M 6.546875 -2.46875 "/></g></g></g><g fill="#000000" fill-opacity="1"><g transform="translate(281.569486, 57.988699)"><g><path d="M 6.546875 -2.46875 L 6.578125 -2.46875 L 6.578125 -7.515625 C 6.578125 -7.847656 6.539062 -8.09375 6.46875 -8.25 C 6.394531 -8.40625 6.273438 -8.503906 6.109375 -8.546875 C 5.953125 -8.597656 5.722656 -8.625 5.421875 -8.625 L 5.421875 -8.84375 L 7.96875 -8.84375 L 7.96875 -8.625 C 7.65625 -8.625 7.425781 -8.550781 7.28125 -8.40625 C 7.132812 -8.269531 7.0625 -8.050781 7.0625 -7.75 L 7.0625 0.140625 L 6.890625 0.140625 L 1.859375 -7.03125 L 1.828125 -7.03125 L 1.828125 -1.328125 C 1.828125 -1.015625 1.859375 -0.773438 1.921875 -0.609375 C 1.992188 -0.453125 2.101562 -0.347656 2.25 -0.296875 C 2.40625 -0.253906 2.617188 -0.226562 2.890625 -0.21875 L 3.078125 -0.21875 L 3.078125 0 L 0.34375 0 L 0.34375 -0.21875 C 0.695312 -0.238281 0.945312 -0.304688 1.09375 -0.421875 C 1.25 -0.546875 1.328125 -0.789062 1.328125 -1.15625 L 1.328125 -7.75 C 1.296875 -7.789062 1.257812 -7.835938 1.21875 -7.890625 C 1.1875 -7.941406 1.144531 -8 1.09375 -8.0625 C 0.925781 -8.289062 0.785156 -8.441406 0.671875 -8.515625 C 0.566406 -8.585938 0.390625 -8.625 0.140625 -8.625 L 0.140625 -8.84375 L 2.0625 -8.84375 Z M 6.546875 -2.46875 "/></g></g></g><g fill="#000000" fill-opacity="1"><g transform="translate(289.948391, 57.988699)"><g><path d="M 3.859375 -9.046875 L 6.109375 -2.046875 C 6.316406 -1.410156 6.460938 -0.976562 6.546875 -0.75 C 6.640625 -0.53125 6.75 -0.382812 6.875 -0.3125 C 7 -0.25 7.195312 -0.21875 7.46875 -0.21875 L 7.46875 0 L 4.453125 0 L 4.453125 -0.21875 C 4.710938 -0.21875 4.898438 -0.253906 5.015625 -0.328125 C 5.140625 -0.410156 5.203125 -0.539062 5.203125 -0.71875 C 5.203125 -0.851562 5.160156 -1.050781 5.078125 -1.3125 L 4.578125 -2.828125 L 2.34375 -2.828125 L 1.875 -1.1875 C 1.8125 -0.96875 1.78125 -0.8125 1.78125 -0.71875 C 1.78125 -0.519531 1.847656 -0.382812 1.984375 -0.3125 C 2.117188 -0.25 2.332031 -0.21875 2.625 -0.21875 L 2.625 0 L 0.234375 0 L 0.234375 -0.21875 C 0.566406 -0.21875 0.804688 -0.304688 0.953125 -0.484375 C 1.109375 -0.660156 1.257812 -0.992188 1.40625 -1.484375 L 3.65625 -9.046875 Z M 2.484375 -3.3125 L 4.421875 -3.3125 L 3.421875 -6.46875 L 3.390625 -6.46875 Z M 2.484375 -3.3125 "/></g></g></g><g fill="#000000" fill-opacity="1"><g transform="translate(297.652829, 57.988699)"><g><path d="M 3.8125 -8.625 C 3.5 -8.625 3.265625 -8.601562 3.109375 -8.5625 C 2.953125 -8.519531 2.835938 -8.414062 2.765625 -8.25 C 2.691406 -8.09375 2.65625 -7.847656 2.65625 -7.515625 L 2.65625 -1.140625 C 2.65625 -0.878906 2.691406 -0.707031 2.765625 -0.625 C 2.847656 -0.539062 3.007812 -0.5 3.25 -0.5 L 4.3125 -0.5 C 4.78125 -0.5 5.144531 -0.550781 5.40625 -0.65625 C 5.664062 -0.769531 5.867188 -0.957031 6.015625 -1.21875 C 6.171875 -1.476562 6.335938 -1.875 6.515625 -2.40625 L 6.71875 -2.328125 L 6.078125 0 L 0.28125 0 L 0.28125 -0.21875 C 0.613281 -0.21875 0.859375 -0.242188 1.015625 -0.296875 C 1.171875 -0.347656 1.28125 -0.445312 1.34375 -0.59375 C 1.40625 -0.75 1.4375 -0.988281 1.4375 -1.3125 L 1.4375 -7.515625 C 1.4375 -7.847656 1.398438 -8.09375 1.328125 -8.25 C 1.253906 -8.40625 1.140625 -8.503906 0.984375 -8.546875 C 0.828125 -8.597656 0.59375 -8.625 0.28125 -8.625 L 0.28125 -8.84375 L 3.8125 -8.84375 Z M 3.8125 -8.625 "/></g></g></g><g clip-path="url(#f3c9003523)"><path stroke-linecap="butt" transform="matrix(0, -0.748524, 0.748524, 0, 110.905188, 74.88198)" fill="none" stroke-linejoin="miter" d="M -0.00111185 2.000145 L 99.945638 2.000145 " stroke="#000000" stroke-width="4" stroke-opacity="1" stroke-miterlimit="4"/></g></svg>