<svg xmlns="http://www.w3.org/2000/svg" xmlns:xlink="http://www.w3.org/1999/xlink" width="500" zoomAndPan="magnify" viewBox="0 0 375 374.999991" height="500" preserveAspectRatio="xMidYMid meet" version="1.0"><defs><g/><clipPath id="8e379233a3"><path d="M 37.5 150.019531 L 138.425781 150.019531 L 138.425781 223.695312 L 37.5 223.695312 Z M 37.5 150.019531 " clip-rule="nonzero"/></clipPath><clipPath id="b147ecdb57"><path d="M 63.960938 168.082031 L 86.546875 168.082031 L 86.546875 215.453125 L 63.960938 215.453125 Z M 63.960938 168.082031 " clip-rule="nonzero"/></clipPath><clipPath id="53f4614da5"><path d="M 79.730469 168.996094 C 74.746094 169.789062 74.664062 169.875 74.203125 170.25 C 72.902344 171.296875 68.675781 174.898438 67.25 177.160156 C 66.246094 178.75 65.953125 179.796875 65.574219 181.808594 C 64.90625 185.242188 64.445312 191.566406 65.074219 195.960938 C 65.617188 199.941406 67.628906 204.753906 68.632812 207.101562 C 69.136719 208.273438 69.386719 208.859375 69.972656 209.65625 C 70.601562 210.535156 71.4375 211.371094 72.316406 212.125 C 73.195312 212.835938 74.035156 213.632812 75.164062 214.007812 C 76.464844 214.511719 78.390625 214.679688 79.769531 214.46875 C 81.027344 214.34375 82.492188 213.757812 83.164062 213.253906 C 83.582031 212.921875 83.664062 212.628906 83.917969 212.207031 C 84.25 211.664062 84.671875 211.121094 84.921875 210.15625 C 85.425781 208.316406 86.09375 204.421875 85.632812 201.613281 C 85.171875 198.726562 82.828125 195.542969 82.074219 193.074219 C 81.53125 191.355469 81.238281 190.265625 81.070312 188.507812 C 80.902344 186.164062 81.070312 182.855469 81.445312 180.21875 C 81.78125 177.703125 83.457031 174.941406 83.203125 173.058594 C 82.996094 171.675781 81.90625 170.335938 81.238281 169.75 C 80.859375 169.371094 80.230469 169.371094 80.105469 169.164062 C 80.023438 168.996094 80.023438 168.742188 80.148438 168.660156 C 80.230469 168.535156 80.652344 168.535156 80.734375 168.617188 C 80.816406 168.742188 80.734375 169.246094 80.609375 169.332031 C 80.484375 169.371094 80.023438 169.078125 80.023438 168.953125 C 80.023438 168.785156 80.355469 168.535156 80.609375 168.535156 C 81.070312 168.535156 82.15625 169.664062 82.703125 170.292969 C 83.164062 170.878906 83.539062 171.507812 83.75 172.09375 C 83.917969 172.636719 84.085938 173.183594 84 173.769531 C 83.917969 174.523438 83.246094 175.316406 82.953125 176.238281 C 82.617188 177.410156 82.410156 178.625 82.285156 180.21875 C 82.03125 182.6875 81.570312 186.707031 81.992188 189.640625 C 82.367188 192.320312 83.539062 195.082031 84.417969 197.132812 C 85.046875 198.683594 86.136719 199.941406 86.429688 201.113281 C 86.636719 201.90625 86.511719 202.410156 86.472656 203.332031 C 86.34375 205.046875 86.136719 208.734375 85.675781 210.367188 C 85.382812 211.289062 85.089844 211.789062 84.628906 212.460938 C 84.085938 213.214844 83.246094 214.136719 82.449219 214.59375 C 81.738281 215.015625 81.109375 215.222656 80.191406 215.308594 C 78.851562 215.476562 76.589844 215.390625 75.125 214.890625 C 73.824219 214.429688 72.738281 213.507812 71.730469 212.667969 C 70.769531 211.914062 70.015625 211.160156 69.261719 210.113281 C 68.382812 208.773438 67.628906 207.058594 66.914062 205.132812 C 65.910156 202.578125 64.65625 199.394531 64.234375 195.960938 C 63.691406 191.734375 64.070312 185.03125 64.78125 181.597656 C 65.15625 179.589844 65.660156 178.332031 66.457031 176.953125 C 67.25 175.613281 68.296875 174.523438 69.554688 173.308594 C 71.0625 171.84375 73.113281 169.75 74.957031 168.910156 C 76.503906 168.242188 79.015625 167.949219 79.730469 168.15625 C 79.980469 168.242188 80.148438 168.410156 80.148438 168.535156 C 80.148438 168.660156 79.730469 168.996094 79.730469 168.996094 " clip-rule="nonzero"/></clipPath><clipPath id="1876d16cee"><path d="M 66.652344 184.394531 L 68.601562 184.394531 L 68.601562 198.488281 L 66.652344 198.488281 Z M 66.652344 184.394531 " clip-rule="nonzero"/></clipPath><clipPath id="466ad59632"><path d="M 67.710938 198.054688 C 66.707031 192.90625 66.582031 190.351562 66.707031 188.550781 C 66.832031 187.085938 66.957031 184.992188 67.460938 184.65625 C 67.667969 184.488281 68.214844 184.65625 68.257812 184.78125 C 68.296875 184.867188 68.003906 185.242188 67.835938 185.242188 C 67.710938 185.242188 67.417969 184.949219 67.417969 184.824219 C 67.417969 184.65625 67.710938 184.40625 67.878906 184.40625 C 68.003906 184.40625 68.214844 184.65625 68.257812 184.867188 C 68.339844 185.324219 67.796875 186.207031 67.667969 187.085938 C 67.460938 188.382812 67.417969 190.226562 67.542969 191.898438 C 67.667969 193.828125 68.800781 197.21875 68.550781 198.054688 C 68.464844 198.308594 68.339844 198.472656 68.171875 198.472656 C 68.046875 198.472656 67.710938 198.054688 67.710938 198.054688 " clip-rule="nonzero"/></clipPath><clipPath id="742b80b19e"><path d="M 89.371094 158.023438 L 111.957031 158.023438 L 111.957031 205.394531 L 89.371094 205.394531 Z M 89.371094 158.023438 " clip-rule="nonzero"/></clipPath><clipPath id="b2f2263d4d"><path d="M 96.191406 204.484375 C 101.171875 203.6875 101.257812 203.605469 101.71875 203.226562 C 103.015625 202.179688 107.242188 198.578125 108.667969 196.316406 C 109.671875 194.726562 109.964844 193.679688 110.34375 191.667969 C 111.011719 188.234375 111.472656 181.914062 110.84375 177.515625 C 110.300781 173.539062 108.289062 168.722656 107.285156 166.378906 C 106.785156 165.207031 106.53125 164.621094 105.945312 163.824219 C 105.316406 162.945312 104.480469 162.105469 103.601562 161.351562 C 102.722656 160.640625 101.882812 159.847656 100.753906 159.46875 C 99.457031 158.964844 97.53125 158.800781 96.148438 159.007812 C 94.890625 159.132812 93.425781 159.71875 92.757812 160.222656 C 92.335938 160.558594 92.253906 160.851562 92.003906 161.269531 C 91.667969 161.8125 91.25 162.359375 90.996094 163.320312 C 90.496094 165.164062 89.824219 169.058594 90.285156 171.863281 C 90.746094 174.753906 93.089844 177.933594 93.84375 180.40625 C 94.390625 182.121094 94.683594 183.210938 94.847656 184.96875 C 95.015625 187.316406 94.847656 190.621094 94.472656 193.261719 C 94.136719 195.773438 92.460938 198.535156 92.714844 200.421875 C 92.921875 201.804688 94.011719 203.144531 94.683594 203.730469 C 95.058594 204.105469 95.6875 204.105469 95.8125 204.316406 C 95.894531 204.484375 95.894531 204.734375 95.769531 204.816406 C 95.6875 204.945312 95.269531 204.945312 95.183594 204.859375 C 95.101562 204.734375 95.183594 204.230469 95.308594 204.148438 C 95.4375 204.105469 95.894531 204.398438 95.894531 204.523438 C 95.894531 204.691406 95.5625 204.945312 95.308594 204.945312 C 94.847656 204.945312 93.761719 203.8125 93.214844 203.183594 C 92.757812 202.597656 92.378906 201.96875 92.167969 201.382812 C 92.003906 200.839844 91.835938 200.296875 91.917969 199.710938 C 92.003906 198.957031 92.671875 198.160156 92.964844 197.238281 C 93.300781 196.066406 93.507812 194.851562 93.636719 193.261719 C 93.886719 190.789062 94.347656 186.769531 93.929688 183.839844 C 93.550781 181.160156 92.378906 178.394531 91.5 176.34375 C 90.871094 174.792969 89.78125 173.539062 89.488281 172.367188 C 89.28125 171.570312 89.40625 171.066406 89.449219 170.148438 C 89.574219 168.429688 89.78125 164.746094 90.242188 163.113281 C 90.535156 162.191406 90.828125 161.6875 91.289062 161.019531 C 91.835938 160.265625 92.671875 159.34375 93.46875 158.882812 C 94.179688 158.464844 94.808594 158.253906 95.730469 158.171875 C 97.070312 158.003906 99.328125 158.085938 100.796875 158.589844 C 102.09375 159.050781 103.183594 159.972656 104.1875 160.808594 C 105.152344 161.5625 105.902344 162.316406 106.65625 163.363281 C 107.539062 164.703125 108.289062 166.417969 109.003906 168.347656 C 110.007812 170.898438 111.265625 174.082031 111.683594 177.515625 C 112.226562 181.746094 111.851562 188.445312 111.136719 191.878906 C 110.761719 193.890625 110.257812 195.144531 109.464844 196.527344 C 108.667969 197.867188 107.621094 198.957031 106.363281 200.171875 C 104.855469 201.636719 102.804688 203.730469 100.964844 204.566406 C 99.414062 205.238281 96.902344 205.53125 96.191406 205.320312 C 95.9375 205.238281 95.769531 205.070312 95.769531 204.945312 C 95.769531 204.816406 96.191406 204.484375 96.191406 204.484375 " clip-rule="nonzero"/></clipPath><clipPath id="0a080e22f6"><path d="M 106 173 L 109 173 L 109 188 L 106 188 Z M 106 173 " clip-rule="nonzero"/></clipPath><clipPath id="249cc77a2e"><path d="M 109.359375 187.023438 L 107.417969 187.175781 L 106.308594 173.121094 L 108.25 172.96875 Z M 109.359375 187.023438 " clip-rule="nonzero"/></clipPath><clipPath id="a009b64b28"><path d="M 107.230469 173.484375 C 108.636719 178.539062 108.964844 181.078125 108.980469 182.882812 C 108.96875 184.351562 109.007812 186.449219 108.535156 186.824219 C 108.339844 187.007812 107.785156 186.882812 107.730469 186.761719 C 107.683594 186.679688 107.945312 186.28125 108.113281 186.269531 C 108.238281 186.257812 108.554688 186.527344 108.5625 186.652344 C 108.578125 186.820312 108.304688 187.09375 108.136719 187.105469 C 108.011719 187.117188 107.785156 186.882812 107.726562 186.675781 C 107.605469 186.226562 108.078125 185.304688 108.136719 184.417969 C 108.242188 183.109375 108.136719 181.269531 107.882812 179.609375 C 107.605469 177.699219 106.210938 174.40625 106.394531 173.550781 C 106.457031 173.292969 106.570312 173.117188 106.738281 173.105469 C 106.863281 173.09375 107.230469 173.484375 107.230469 173.484375 " clip-rule="nonzero"/></clipPath></defs><g clip-path="url(#8e379233a3)"><path fill="#000000" d="M 137.710938 194.632812 L 137.769531 194.632812 L 137.769531 194.691406 C 137.625 196.460938 136.824219 198.082031 135.511719 199.277344 C 134.199219 200.457031 132.496094 201.09375 130.734375 201.054688 L 130.722656 201.054688 C 130.308594 202.371094 129.835938 203.6875 129.289062 204.980469 C 129.761719 204.347656 130.332031 203.824219 131 203.382812 C 132.484375 202.421875 134.257812 202.054688 135.996094 202.371094 L 136.058594 202.386719 L 136.042969 202.445312 C 135.632812 204.164062 134.585938 205.652344 133.105469 206.617188 C 131.621094 207.578125 129.847656 207.945312 128.109375 207.628906 L 128.097656 207.628906 C 128.023438 207.785156 127.9375 207.933594 127.867188 208.089844 C 127.320312 209.164062 126.710938 210.238281 126.042969 211.308594 C 126.613281 210.75 127.28125 210.296875 128.011719 209.980469 C 129.628906 209.261719 131.425781 209.1875 133.105469 209.773438 L 133.152344 209.796875 L 133.128906 209.847656 C 132.449219 211.480469 131.183594 212.785156 129.566406 213.503906 C 127.953125 214.222656 126.152344 214.296875 124.476562 213.710938 L 124.453125 213.699219 C 123.636719 214.84375 122.761719 215.964844 121.851562 217.027344 C 122.507812 216.5625 123.234375 216.210938 124.015625 216.003906 C 125.714844 215.539062 127.515625 215.746094 129.070312 216.589844 L 129.117188 216.613281 L 129.09375 216.660156 C 128.15625 218.171875 126.710938 219.257812 125.011719 219.710938 C 123.308594 220.171875 121.511719 219.964844 119.953125 219.125 L 119.929688 219.113281 C 118.3125 220.769531 116.578125 222.292969 114.765625 223.660156 L 114.71875 223.695312 L 114.15625 222.953125 L 114.207031 222.917969 C 115.980469 221.574219 117.65625 220.101562 119.214844 218.503906 C 118.109375 217.136719 117.5625 215.417969 117.683594 213.664062 C 117.804688 211.894531 118.582031 210.261719 119.882812 209.054688 L 119.917969 209.015625 L 119.953125 209.066406 C 121.074219 210.445312 121.621094 212.164062 121.5 213.929688 C 121.414062 215.125 121.023438 216.257812 120.378906 217.246094 C 121.546875 215.953125 122.640625 214.601562 123.636719 213.1875 C 122.335938 212.003906 121.523438 210.394531 121.375 208.652344 C 121.21875 206.882812 121.742188 205.152344 122.835938 203.75 L 122.871094 203.703125 L 122.90625 203.738281 C 124.234375 204.921875 125.046875 206.542969 125.191406 208.296875 C 125.300781 209.515625 125.082031 210.710938 124.585938 211.796875 C 125.472656 210.457031 126.273438 209.066406 127.003906 207.640625 C 127.0625 207.503906 127.125 207.382812 127.199219 207.25 C 125.726562 206.296875 124.671875 204.824219 124.246094 203.117188 C 123.820312 201.398438 124.050781 199.59375 124.914062 198.058594 L 124.9375 198.007812 L 124.984375 198.042969 C 126.46875 199.007812 127.527344 200.472656 127.964844 202.191406 C 128.253906 203.382812 128.230469 204.617188 127.890625 205.773438 C 128.621094 204.152344 129.25 202.507812 129.773438 200.835938 C 128.171875 200.117188 126.894531 198.835938 126.214844 197.214844 C 125.519531 195.582031 125.484375 193.765625 126.09375 192.105469 L 126.117188 192.058594 L 126.164062 192.082031 C 127.78125 192.789062 129.058594 194.082031 129.75 195.714844 C 130.234375 196.863281 130.394531 198.09375 130.234375 199.3125 C 130.710938 197.605469 131.074219 195.863281 131.328125 194.09375 C 129.628906 193.644531 128.183594 192.570312 127.246094 191.082031 C 126.3125 189.582031 125.984375 187.792969 126.324219 186.058594 L 126.335938 186 L 126.394531 186.011719 C 128.109375 186.460938 129.566406 187.535156 130.503906 189.035156 C 131.136719 190.046875 131.488281 191.203125 131.535156 192.375 C 131.707031 190.800781 131.792969 189.207031 131.792969 187.609375 C 131.792969 187.511719 131.792969 187.414062 131.792969 187.316406 L 131.792969 187.183594 C 130.054688 187 128.460938 186.167969 127.320312 184.839844 C 126.152344 183.5 125.558594 181.792969 125.628906 180.023438 L 125.628906 179.964844 L 125.691406 179.964844 C 127.453125 180.132812 129.058594 180.976562 130.210938 182.304688 C 130.976562 183.195312 131.5 184.230469 131.742188 185.363281 C 131.65625 183.644531 131.476562 181.953125 131.195312 180.269531 C 131.074219 180.28125 130.941406 180.28125 130.820312 180.28125 C 129.203125 180.28125 127.648438 179.71875 126.394531 178.671875 C 125.046875 177.539062 124.183594 175.941406 123.976562 174.171875 L 123.964844 174.113281 L 124.027344 174.113281 C 125.789062 174.015625 127.515625 174.574219 128.863281 175.722656 C 129.785156 176.5 130.480469 177.5 130.890625 178.609375 C 130.539062 176.890625 130.089844 175.210938 129.53125 173.550781 C 129.046875 173.660156 128.558594 173.710938 128.074219 173.710938 C 126.832031 173.710938 125.617188 173.378906 124.523438 172.722656 C 123.003906 171.808594 121.910156 170.367188 121.4375 168.664062 L 121.425781 168.613281 L 121.484375 168.601562 C 123.210938 168.222656 125 168.515625 126.515625 169.429688 C 127.550781 170.050781 128.390625 170.929688 128.972656 171.964844 C 128.351562 170.34375 127.648438 168.746094 126.832031 167.1875 C 125.191406 167.820312 123.40625 167.808594 121.777344 167.152344 C 120.136719 166.492188 118.824219 165.234375 118.09375 163.628906 L 118.070312 163.578125 L 118.121094 163.554688 C 119.761719 162.90625 121.570312 162.917969 123.210938 163.578125 C 124.292969 164.015625 125.21875 164.699219 125.945312 165.589844 C 125.082031 164.101562 124.148438 162.675781 123.152344 161.324219 C 121.632812 162.199219 119.871094 162.457031 118.167969 162.066406 C 116.441406 161.664062 114.960938 160.640625 113.976562 159.164062 L 113.9375 159.117188 L 113.988281 159.089844 C 115.519531 158.203125 117.304688 157.921875 119.019531 158.324219 C 120.113281 158.578125 121.121094 159.089844 121.972656 159.824219 C 121.328125 159.03125 120.648438 158.25 119.96875 157.519531 C 118.144531 157.371094 116.492188 156.628906 115.179688 155.375 C 113.734375 153.984375 112.882812 152.117188 112.785156 150.105469 L 112.785156 150.046875 L 112.84375 150.046875 C 114.851562 150.058594 116.746094 150.835938 118.191406 152.226562 C 119.457031 153.445312 120.257812 154.996094 120.515625 156.726562 C 121.074219 157.324219 121.632812 157.945312 122.179688 158.589844 C 121.789062 157.835938 121.546875 157.019531 121.449219 156.164062 C 121.265625 154.410156 121.753906 152.652344 122.824219 151.238281 L 122.859375 151.191406 L 122.90625 151.226562 C 124.257812 152.386719 125.09375 153.996094 125.277344 155.75 C 125.460938 157.507812 124.972656 159.261719 123.90625 160.675781 L 123.878906 160.714844 C 124.71875 161.847656 125.519531 163.03125 126.261719 164.238281 C 126.019531 163.457031 125.910156 162.640625 125.957031 161.824219 C 126.042969 160.054688 126.796875 158.398438 128.085938 157.175781 L 128.121094 157.140625 L 128.15625 157.191406 C 129.300781 158.542969 129.882812 160.261719 129.785156 162.03125 C 129.703125 163.796875 128.949219 165.445312 127.671875 166.675781 L 127.648438 166.699219 C 128.304688 167.941406 128.898438 169.222656 129.421875 170.503906 C 129.3125 169.710938 129.335938 168.917969 129.507812 168.136719 C 129.871094 166.40625 130.867188 164.894531 132.328125 163.882812 L 132.375 163.847656 L 132.398438 163.894531 C 133.324219 165.40625 133.625 167.199219 133.261719 168.929688 C 132.898438 170.660156 131.902344 172.171875 130.441406 173.183594 L 130.429688 173.199219 C 130.878906 174.527344 131.257812 175.890625 131.585938 177.269531 C 131.597656 176.464844 131.742188 175.671875 132.035156 174.917969 C 132.667969 173.257812 133.894531 171.929688 135.484375 171.160156 L 135.535156 171.136719 L 135.558594 171.1875 C 136.226562 172.832031 136.25 174.636719 135.621094 176.292969 C 134.988281 177.953125 133.761719 179.28125 132.167969 180.050781 L 132.144531 180.0625 C 132.375 181.453125 132.546875 182.878906 132.640625 184.304688 C 132.777344 183.488281 133.054688 182.71875 133.457031 182 C 134.332031 180.464844 135.753906 179.34375 137.441406 178.832031 L 137.492188 178.816406 L 137.503906 178.878906 C 137.917969 180.609375 137.648438 182.402344 136.773438 183.9375 C 135.898438 185.476562 134.476562 186.597656 132.789062 187.109375 L 132.75 187.121094 C 132.75 187.304688 132.75 187.460938 132.75 187.621094 C 132.75 188.851562 132.703125 190.109375 132.59375 191.363281 C 132.847656 190.59375 133.238281 189.875 133.75 189.242188 C 134.855469 187.863281 136.433594 186.972656 138.183594 186.730469 L 138.246094 186.71875 L 138.246094 186.78125 C 138.378906 188.546875 137.84375 190.277344 136.726562 191.65625 C 135.621094 193.035156 134.039062 193.921875 132.289062 194.167969 L 132.265625 194.167969 C 132.070312 195.546875 131.804688 196.921875 131.476562 198.277344 C 131.851562 197.582031 132.339844 196.960938 132.921875 196.421875 C 134.199219 195.277344 135.828125 194.644531 137.539062 194.644531 C 137.601562 194.632812 137.660156 194.632812 137.710938 194.632812 Z M 57.71875 152.203125 C 56.457031 153.421875 55.65625 154.972656 55.398438 156.703125 C 54.839844 157.300781 54.28125 157.921875 53.734375 158.566406 C 54.125 157.8125 54.367188 156.996094 54.464844 156.140625 C 54.644531 154.386719 54.160156 152.628906 53.089844 151.214844 L 53.054688 151.167969 L 53.003906 151.203125 C 51.667969 152.363281 50.816406 153.972656 50.636719 155.726562 C 50.453125 157.480469 50.9375 159.238281 52.007812 160.652344 L 52.03125 160.6875 C 51.195312 161.824219 50.390625 163.003906 49.652344 164.210938 C 49.894531 163.433594 50.003906 162.613281 49.953125 161.796875 C 49.871094 160.03125 49.117188 158.382812 47.839844 157.152344 L 47.804688 157.117188 L 47.765625 157.164062 C 46.625 158.519531 46.042969 160.238281 46.140625 162.003906 C 46.222656 163.773438 46.976562 165.417969 48.253906 166.652344 L 48.277344 166.675781 C 47.621094 167.917969 47.027344 169.199219 46.503906 170.480469 C 46.613281 169.6875 46.589844 168.894531 46.417969 168.113281 C 46.054688 166.382812 45.058594 164.871094 43.597656 163.859375 L 43.550781 163.820312 L 43.527344 163.871094 C 42.601562 165.382812 42.296875 167.175781 42.664062 168.90625 C 43.027344 170.636719 44.023438 172.148438 45.484375 173.160156 L 45.496094 173.171875 C 45.046875 174.503906 44.667969 175.867188 44.339844 177.246094 C 44.328125 176.441406 44.183594 175.648438 43.890625 174.890625 C 43.257812 173.234375 42.03125 171.90625 40.4375 171.136719 L 40.390625 171.113281 L 40.367188 171.160156 C 39.699219 172.796875 39.671875 174.613281 40.304688 176.269531 C 40.9375 177.929688 42.164062 179.257812 43.757812 180.023438 L 43.78125 180.039062 C 43.550781 181.425781 43.378906 182.855469 43.28125 184.28125 C 43.148438 183.464844 42.871094 182.695312 42.46875 181.976562 C 41.59375 180.441406 40.171875 179.316406 38.484375 178.804688 L 38.433594 178.792969 L 38.421875 178.855469 C 38.007812 180.585938 38.277344 182.378906 39.152344 183.914062 C 40.027344 185.449219 41.449219 186.570312 43.136719 187.085938 L 43.171875 187.097656 C 43.171875 187.277344 43.171875 187.4375 43.171875 187.597656 C 43.171875 188.828125 43.222656 190.082031 43.332031 191.339844 C 43.078125 190.558594 42.6875 189.851562 42.175781 189.21875 C 41.058594 187.839844 39.492188 186.949219 37.742188 186.71875 L 37.679688 186.707031 L 37.679688 186.765625 C 37.546875 188.535156 38.082031 190.265625 39.199219 191.644531 C 40.304688 193.023438 41.886719 193.910156 43.636719 194.15625 L 43.660156 194.15625 C 43.855469 195.53125 44.121094 196.910156 44.449219 198.265625 C 44.074219 197.570312 43.585938 196.949219 43.003906 196.410156 C 41.691406 195.226562 40 194.582031 38.226562 194.632812 L 38.167969 194.632812 L 38.167969 194.691406 C 38.3125 196.460938 39.113281 198.082031 40.425781 199.277344 C 41.738281 200.457031 43.429688 201.09375 45.203125 201.054688 L 45.214844 201.054688 C 45.628906 202.371094 46.101562 203.6875 46.648438 204.980469 C 46.175781 204.347656 45.59375 203.824219 44.9375 203.382812 C 43.453125 202.421875 41.679688 202.054688 39.941406 202.371094 L 39.878906 202.386719 L 39.890625 202.445312 C 40.304688 204.164062 41.351562 205.652344 42.832031 206.617188 C 44.316406 207.578125 46.089844 207.945312 47.828125 207.628906 L 47.839844 207.628906 C 47.914062 207.785156 47.984375 207.933594 48.070312 208.089844 C 48.617188 209.164062 49.226562 210.25 49.894531 211.308594 C 49.324219 210.75 48.65625 210.296875 47.925781 209.980469 C 46.308594 209.261719 44.511719 209.1875 42.832031 209.773438 L 42.785156 209.796875 L 42.808594 209.847656 C 43.488281 211.480469 44.753906 212.785156 46.371094 213.503906 C 47.984375 214.222656 49.785156 214.296875 51.460938 213.710938 L 51.484375 213.699219 C 52.300781 214.84375 53.175781 215.964844 54.085938 217.027344 C 53.429688 216.5625 52.703125 216.210938 51.921875 216.003906 C 50.222656 215.539062 48.421875 215.746094 46.867188 216.589844 L 46.820312 216.613281 L 46.84375 216.660156 C 47.78125 218.171875 49.226562 219.257812 50.925781 219.710938 C 52.628906 220.171875 54.425781 219.964844 55.984375 219.125 L 56.007812 219.113281 C 57.625 220.769531 59.359375 222.304688 61.171875 223.660156 L 61.21875 223.695312 L 61.78125 222.953125 L 61.730469 222.917969 C 59.957031 221.574219 58.28125 220.101562 56.722656 218.503906 C 57.828125 217.136719 58.375 215.417969 58.253906 213.664062 C 58.132812 211.894531 57.355469 210.261719 56.054688 209.054688 L 56.019531 209.015625 L 55.984375 209.066406 C 54.863281 210.445312 54.304688 212.164062 54.4375 213.929688 C 54.523438 215.125 54.914062 216.257812 55.558594 217.246094 C 54.390625 215.953125 53.296875 214.601562 52.289062 213.1875 C 53.589844 212.003906 54.402344 210.394531 54.546875 208.652344 C 54.707031 206.882812 54.183594 205.152344 53.089844 203.75 L 53.054688 203.703125 L 53.015625 203.738281 C 51.691406 204.921875 50.878906 206.542969 50.734375 208.296875 C 50.625 209.515625 50.84375 210.710938 51.339844 211.796875 C 50.453125 210.457031 49.652344 209.066406 48.921875 207.640625 C 48.859375 207.503906 48.800781 207.382812 48.726562 207.25 C 50.199219 206.296875 51.253906 204.824219 51.679688 203.117188 C 52.105469 201.398438 51.875 199.605469 51 198.058594 L 50.976562 198.007812 L 50.925781 198.042969 C 49.445312 199.007812 48.386719 200.472656 47.949219 202.191406 C 47.65625 203.382812 47.683594 204.617188 48.011719 205.773438 C 47.28125 204.152344 46.648438 202.507812 46.125 200.835938 C 47.730469 200.117188 49.007812 198.835938 49.6875 197.214844 C 50.378906 195.582031 50.417969 193.765625 49.808594 192.105469 L 49.785156 192.058594 L 49.734375 192.082031 C 48.121094 192.789062 46.84375 194.082031 46.152344 195.714844 C 45.664062 196.863281 45.507812 198.09375 45.664062 199.300781 C 45.191406 197.59375 44.828125 195.851562 44.570312 194.082031 C 46.273438 193.632812 47.71875 192.558594 48.65625 191.070312 C 49.589844 189.570312 49.917969 187.777344 49.566406 186.046875 L 49.566406 185.988281 L 49.503906 186 C 47.792969 186.449219 46.332031 187.523438 45.398438 189.023438 C 44.765625 190.035156 44.414062 191.191406 44.363281 192.363281 C 44.195312 190.789062 44.109375 189.207031 44.109375 187.597656 C 44.109375 187.5 44.109375 187.402344 44.109375 187.304688 L 44.109375 187.167969 C 45.847656 186.988281 47.4375 186.15625 48.59375 184.828125 C 49.75 183.488281 50.355469 181.78125 50.28125 180.011719 L 50.28125 179.953125 L 50.222656 179.953125 C 48.460938 180.121094 46.855469 180.964844 45.703125 182.292969 C 44.9375 183.183594 44.414062 184.21875 44.171875 185.351562 C 44.253906 183.632812 44.4375 181.9375 44.71875 180.257812 C 44.839844 180.269531 44.960938 180.269531 45.09375 180.269531 C 46.710938 180.269531 48.265625 179.707031 49.515625 178.660156 C 50.867188 177.527344 51.730469 175.929688 51.9375 174.160156 L 51.949219 174.101562 L 51.886719 174.101562 C 50.125 174.003906 48.398438 174.5625 47.050781 175.710938 C 46.125 176.488281 45.433594 177.488281 45.019531 178.597656 C 45.375 176.878906 45.824219 175.195312 46.382812 173.539062 C 46.867188 173.648438 47.355469 173.699219 47.839844 173.699219 C 49.078125 173.699219 50.296875 173.367188 51.390625 172.710938 C 52.90625 171.796875 54 170.355469 54.476562 168.648438 L 54.488281 168.601562 L 54.425781 168.589844 C 52.703125 168.210938 50.914062 168.503906 49.394531 169.417969 C 48.363281 170.039062 47.523438 170.917969 46.941406 171.964844 C 47.5625 170.332031 48.265625 168.746094 49.078125 167.1875 C 50.71875 167.820312 52.507812 167.808594 54.136719 167.152344 C 55.777344 166.492188 57.089844 165.234375 57.816406 163.628906 L 57.84375 163.578125 L 57.792969 163.554688 C 56.152344 162.90625 54.34375 162.917969 52.703125 163.578125 C 51.621094 164.015625 50.695312 164.699219 49.96875 165.589844 C 50.816406 164.101562 51.765625 162.675781 52.761719 161.324219 C 54.28125 162.199219 56.042969 162.457031 57.746094 162.066406 C 59.46875 161.664062 60.953125 160.640625 61.9375 159.164062 L 61.972656 159.117188 L 61.925781 159.089844 C 60.394531 158.203125 58.609375 157.921875 56.894531 158.324219 C 55.800781 158.578125 54.792969 159.089844 53.941406 159.835938 C 54.585938 159.042969 55.265625 158.261719 55.945312 157.53125 C 57.769531 157.382812 59.421875 156.640625 60.734375 155.386719 C 62.179688 153.996094 63.03125 152.128906 63.128906 150.117188 L 63.128906 150.058594 L 63.054688 150.019531 C 61.0625 150.03125 59.15625 150.8125 57.71875 152.203125 Z M 57.71875 152.203125 " fill-opacity="1" fill-rule="nonzero"/></g><g clip-path="url(#b147ecdb57)"><g clip-path="url(#53f4614da5)"><path fill="#000000" d="M 62.5625 166.484375 L 88.144531 166.484375 L 88.144531 217.054688 L 62.5625 217.054688 Z M 62.5625 166.484375 " fill-opacity="1" fill-rule="nonzero"/></g></g><g clip-path="url(#1876d16cee)"><g clip-path="url(#466ad59632)"><path fill="#000000" d="M 65.03125 182.730469 L 70.222656 182.730469 L 70.222656 200.191406 L 65.03125 200.191406 Z M 65.03125 182.730469 " fill-opacity="1" fill-rule="nonzero"/></g></g><g clip-path="url(#742b80b19e)"><g clip-path="url(#b2f2263d4d)"><path fill="#000000" d="M 113.359375 206.996094 L 87.773438 206.996094 L 87.773438 156.425781 L 113.359375 156.425781 Z M 113.359375 206.996094 " fill-opacity="1" fill-rule="nonzero"/></g></g><g clip-path="url(#0a080e22f6)"><g clip-path="url(#249cc77a2e)"><g clip-path="url(#a009b64b28)"><path fill="#000000" d="M 111.109375 188.550781 L 105.929688 188.960938 L 104.558594 171.550781 L 109.734375 171.144531 Z M 111.109375 188.550781 " fill-opacity="1" fill-rule="nonzero"/></g></g></g><path stroke-linecap="butt" transform="matrix(0.504626, 0, 0, 0.504626, 73.552089, 223.969879)" fill="none" stroke-linejoin="miter" d="M -0.00259206 0.996336 L 63.1165 0.996336 " stroke="#d9d9d9" stroke-width="2" stroke-opacity="1" stroke-miterlimit="4"/><g fill="#ffbd59" fill-opacity="1"><g transform="translate(172.990688, 188.608719)"><g><path d="M 19.140625 -10.484375 C 19.140625 -8.296875 18.660156 -6.410156 17.703125 -4.828125 C 16.742188 -3.242188 15.488281 -2.039062 13.9375 -1.21875 C 12.382812 -0.40625 10.726562 0 8.96875 0 L 0.59375 0 L 0.59375 -0.53125 C 1.332031 -0.550781 1.882812 -0.617188 2.25 -0.734375 C 2.613281 -0.847656 2.878906 -1.082031 3.046875 -1.4375 C 3.210938 -1.800781 3.296875 -2.390625 3.296875 -3.203125 L 3.296875 -18 C 3.296875 -18.800781 3.210938 -19.382812 3.046875 -19.75 C 2.878906 -20.113281 2.613281 -20.351562 2.25 -20.46875 C 1.882812 -20.582031 1.332031 -20.640625 0.59375 -20.640625 L 0.59375 -21.15625 L 8.78125 -21.15625 C 10.894531 -21.15625 12.726562 -20.707031 14.28125 -19.8125 C 15.84375 -18.914062 17.039062 -17.660156 17.875 -16.046875 C 18.71875 -14.429688 19.140625 -12.578125 19.140625 -10.484375 Z M 6.203125 -19.671875 L 6.203125 -1.484375 C 6.953125 -1.140625 7.84375 -0.96875 8.875 -0.96875 C 11.03125 -0.96875 12.703125 -1.789062 13.890625 -3.4375 C 15.078125 -5.09375 15.671875 -7.410156 15.671875 -10.390625 C 15.671875 -13.285156 15.066406 -15.625 13.859375 -17.40625 C 12.648438 -19.1875 10.882812 -20.078125 8.5625 -20.078125 C 7.800781 -20.078125 7.015625 -19.941406 6.203125 -19.671875 Z M 6.203125 -19.671875 "/></g></g></g><g fill="#ffbd59" fill-opacity="1"><g transform="translate(193.032759, 188.608719)"><g><path d="M 15.546875 -15.859375 C 15.546875 -14.535156 15.085938 -13.375 14.171875 -12.375 C 13.265625 -11.382812 12.015625 -10.734375 10.421875 -10.421875 L 15.453125 -2.234375 C 15.847656 -1.566406 16.195312 -1.113281 16.5 -0.875 C 16.8125 -0.644531 17.195312 -0.53125 17.65625 -0.53125 L 17.84375 -0.53125 L 17.84375 0 L 13.78125 0 L 7.640625 -10.046875 L 6.203125 -10.046875 L 6.203125 -3.171875 C 6.203125 -2.359375 6.285156 -1.769531 6.453125 -1.40625 C 6.617188 -1.050781 6.878906 -0.816406 7.234375 -0.703125 C 7.597656 -0.585938 8.164062 -0.53125 8.9375 -0.53125 L 8.9375 0 L 0.53125 0 L 0.53125 -0.53125 C 1.289062 -0.53125 1.859375 -0.585938 2.234375 -0.703125 C 2.609375 -0.816406 2.878906 -1.054688 3.046875 -1.421875 C 3.210938 -1.796875 3.296875 -2.378906 3.296875 -3.171875 L 3.296875 -17.96875 C 3.296875 -18.769531 3.207031 -19.359375 3.03125 -19.734375 C 2.851562 -20.109375 2.578125 -20.351562 2.203125 -20.46875 C 1.828125 -20.582031 1.269531 -20.640625 0.53125 -20.640625 L 0.53125 -21.15625 L 9.34375 -21.15625 C 10.5 -21.15625 11.550781 -20.925781 12.5 -20.46875 C 13.457031 -20.019531 14.203125 -19.390625 14.734375 -18.578125 C 15.273438 -17.773438 15.546875 -16.867188 15.546875 -15.859375 Z M 6.203125 -19.640625 L 6.203125 -11.046875 L 7.234375 -11.046875 C 8.890625 -11.046875 10.109375 -11.488281 10.890625 -12.375 C 11.679688 -13.269531 12.078125 -14.328125 12.078125 -15.546875 C 12.078125 -16.847656 11.722656 -17.925781 11.015625 -18.78125 C 10.316406 -19.644531 9.363281 -20.078125 8.15625 -20.078125 C 7.457031 -20.078125 6.804688 -19.929688 6.203125 -19.640625 Z M 6.203125 -19.640625 "/></g></g></g><g fill="#ffbd59" fill-opacity="1"><g transform="translate(211.461539, 188.608719)"><g><path d="M 7.609375 -20.640625 C 6.835938 -20.640625 6.328125 -20.585938 6.078125 -20.484375 C 5.828125 -20.378906 5.703125 -20.171875 5.703125 -19.859375 C 5.703125 -19.628906 5.757812 -19.40625 5.875 -19.1875 C 5.988281 -18.96875 6.054688 -18.84375 6.078125 -18.8125 L 10.109375 -10.703125 L 13.875 -18.828125 C 14.019531 -19.203125 14.09375 -19.523438 14.09375 -19.796875 C 14.09375 -20.128906 13.96875 -20.351562 13.71875 -20.46875 C 13.46875 -20.582031 13.050781 -20.640625 12.46875 -20.640625 L 12.46875 -21.15625 L 17.90625 -21.15625 L 17.90625 -20.640625 C 17.132812 -20.597656 16.539062 -20.40625 16.125 -20.0625 C 15.71875 -19.71875 15.285156 -19.0625 14.828125 -18.09375 L 10.640625 -9.0625 L 10.640625 -3.203125 C 10.640625 -2.390625 10.722656 -1.789062 10.890625 -1.40625 C 11.054688 -1.03125 11.316406 -0.789062 11.671875 -0.6875 C 12.035156 -0.582031 12.59375 -0.53125 13.34375 -0.53125 L 13.34375 0 L 5.03125 0 L 5.03125 -0.53125 C 5.769531 -0.550781 6.320312 -0.613281 6.6875 -0.71875 C 7.050781 -0.820312 7.316406 -1.054688 7.484375 -1.421875 C 7.648438 -1.796875 7.734375 -2.390625 7.734375 -3.203125 L 7.734375 -8.875 L 2.828125 -18.75 C 2.472656 -19.445312 2.144531 -19.921875 1.84375 -20.171875 C 1.539062 -20.421875 1.101562 -20.578125 0.53125 -20.640625 L 0.53125 -21.15625 L 7.609375 -21.15625 Z M 7.609375 -20.640625 "/></g></g></g><g fill="#ffbd59" fill-opacity="1"><g transform="translate(229.890318, 188.608719)"><g/></g></g><g fill="#ffbd59" fill-opacity="1"><g transform="translate(235.785045, 188.608719)"><g><path d="M 5.28125 -22.125 L 5.28125 -21.46875 C 4.53125 -21.082031 3.972656 -20.609375 3.609375 -20.046875 C 3.253906 -19.484375 3.078125 -18.957031 3.078125 -18.46875 C 3.078125 -18.175781 3.125 -17.945312 3.21875 -17.78125 C 3.320312 -17.613281 3.445312 -17.53125 3.59375 -17.53125 C 3.695312 -17.53125 3.828125 -17.582031 3.984375 -17.6875 C 4.140625 -17.789062 4.332031 -17.84375 4.5625 -17.84375 C 5.019531 -17.84375 5.382812 -17.6875 5.65625 -17.375 C 5.9375 -17.0625 6.078125 -16.679688 6.078125 -16.234375 C 6.078125 -15.710938 5.894531 -15.28125 5.53125 -14.9375 C 5.175781 -14.59375 4.726562 -14.421875 4.1875 -14.421875 C 3.53125 -14.421875 2.945312 -14.722656 2.4375 -15.328125 C 1.925781 -15.929688 1.671875 -16.664062 1.671875 -17.53125 C 1.671875 -18.382812 2.007812 -19.265625 2.6875 -20.171875 C 3.375 -21.078125 4.238281 -21.726562 5.28125 -22.125 Z M 5.28125 -22.125 "/></g></g></g><g fill="#ffbd59" fill-opacity="1"><g transform="translate(243.541263, 188.608719)"><g><path d="M 15.671875 -5.890625 L 15.734375 -5.890625 L 15.734375 -18 C 15.734375 -18.78125 15.644531 -19.359375 15.46875 -19.734375 C 15.289062 -20.109375 15.007812 -20.351562 14.625 -20.46875 C 14.25 -20.582031 13.695312 -20.640625 12.96875 -20.640625 L 12.96875 -21.15625 L 19.078125 -21.15625 L 19.078125 -20.640625 C 18.316406 -20.640625 17.765625 -20.472656 17.421875 -20.140625 C 17.078125 -19.804688 16.90625 -19.269531 16.90625 -18.53125 L 16.90625 0.34375 L 16.484375 0.34375 L 4.4375 -16.8125 L 4.375 -16.8125 L 4.375 -3.203125 C 4.375 -2.429688 4.457031 -1.851562 4.625 -1.46875 C 4.789062 -1.09375 5.046875 -0.847656 5.390625 -0.734375 C 5.742188 -0.617188 6.253906 -0.550781 6.921875 -0.53125 L 7.359375 -0.53125 L 7.359375 0 L 0.8125 0 L 0.8125 -0.53125 C 1.675781 -0.570312 2.289062 -0.734375 2.65625 -1.015625 C 3.019531 -1.304688 3.203125 -1.890625 3.203125 -2.765625 L 3.203125 -18.53125 C 3.117188 -18.632812 3.03125 -18.75 2.9375 -18.875 C 2.84375 -19.007812 2.734375 -19.148438 2.609375 -19.296875 C 2.210938 -19.835938 1.882812 -20.195312 1.625 -20.375 C 1.363281 -20.550781 0.9375 -20.640625 0.34375 -20.640625 L 0.34375 -21.15625 L 4.9375 -21.15625 Z M 15.671875 -5.890625 "/></g></g></g><g fill="#ffbd59" fill-opacity="1"><g transform="translate(263.583335, 188.608719)"><g><path d="M 3.5625 -22.125 C 4.226562 -22.125 4.8125 -21.820312 5.3125 -21.21875 C 5.820312 -20.625 6.078125 -19.890625 6.078125 -19.015625 C 6.078125 -18.171875 5.734375 -17.289062 5.046875 -16.375 C 4.367188 -15.46875 3.515625 -14.816406 2.484375 -14.421875 L 2.484375 -15.078125 C 3.222656 -15.472656 3.773438 -15.945312 4.140625 -16.5 C 4.503906 -17.0625 4.6875 -17.59375 4.6875 -18.09375 C 4.6875 -18.382812 4.632812 -18.609375 4.53125 -18.765625 C 4.425781 -18.929688 4.300781 -19.015625 4.15625 -19.015625 C 4.050781 -19.015625 3.921875 -18.960938 3.765625 -18.859375 C 3.609375 -18.765625 3.421875 -18.71875 3.203125 -18.71875 C 2.742188 -18.71875 2.375 -18.867188 2.09375 -19.171875 C 1.8125 -19.484375 1.671875 -19.867188 1.671875 -20.328125 C 1.671875 -20.835938 1.851562 -21.265625 2.21875 -21.609375 C 2.582031 -21.953125 3.03125 -22.125 3.5625 -22.125 Z M 3.5625 -22.125 "/></g></g></g><g fill="#ffbd59" fill-opacity="1"><g transform="translate(271.339553, 188.608719)"><g/></g></g><g fill="#ffbd59" fill-opacity="1"><g transform="translate(277.23428, 188.608719)"><g><path d="M 15.671875 -5.890625 L 15.734375 -5.890625 L 15.734375 -18 C 15.734375 -18.78125 15.644531 -19.359375 15.46875 -19.734375 C 15.289062 -20.109375 15.007812 -20.351562 14.625 -20.46875 C 14.25 -20.582031 13.695312 -20.640625 12.96875 -20.640625 L 12.96875 -21.15625 L 19.078125 -21.15625 L 19.078125 -20.640625 C 18.316406 -20.640625 17.765625 -20.472656 17.421875 -20.140625 C 17.078125 -19.804688 16.90625 -19.269531 16.90625 -18.53125 L 16.90625 0.34375 L 16.484375 0.34375 L 4.4375 -16.8125 L 4.375 -16.8125 L 4.375 -3.203125 C 4.375 -2.429688 4.457031 -1.851562 4.625 -1.46875 C 4.789062 -1.09375 5.046875 -0.847656 5.390625 -0.734375 C 5.742188 -0.617188 6.253906 -0.550781 6.921875 -0.53125 L 7.359375 -0.53125 L 7.359375 0 L 0.8125 0 L 0.8125 -0.53125 C 1.675781 -0.570312 2.289062 -0.734375 2.65625 -1.015625 C 3.019531 -1.304688 3.203125 -1.890625 3.203125 -2.765625 L 3.203125 -18.53125 C 3.117188 -18.632812 3.03125 -18.75 2.9375 -18.875 C 2.84375 -19.007812 2.734375 -19.148438 2.609375 -19.296875 C 2.210938 -19.835938 1.882812 -20.195312 1.625 -20.375 C 1.363281 -20.550781 0.9375 -20.640625 0.34375 -20.640625 L 0.34375 -21.15625 L 4.9375 -21.15625 Z M 15.671875 -5.890625 "/></g></g></g><g fill="#ffbd59" fill-opacity="1"><g transform="translate(297.276351, 188.608719)"><g><path d="M 8.34375 -20.640625 C 7.726562 -20.617188 7.253906 -20.546875 6.921875 -20.421875 C 6.585938 -20.296875 6.34375 -20.046875 6.1875 -19.671875 C 6.03125 -19.296875 5.953125 -18.738281 5.953125 -18 L 5.953125 -5.828125 C 5.953125 -4.296875 6.347656 -3.046875 7.140625 -2.078125 C 7.941406 -1.109375 9.128906 -0.625 10.703125 -0.625 C 11.835938 -0.625 12.796875 -0.882812 13.578125 -1.40625 C 14.367188 -1.9375 14.960938 -2.640625 15.359375 -3.515625 C 15.753906 -4.398438 15.953125 -5.359375 15.953125 -6.390625 L 15.953125 -18 C 15.953125 -18.757812 15.875 -19.328125 15.71875 -19.703125 C 15.5625 -20.078125 15.316406 -20.320312 14.984375 -20.4375 C 14.648438 -20.550781 14.15625 -20.617188 13.5 -20.640625 L 13.5 -21.15625 L 19.453125 -21.15625 L 19.453125 -20.640625 C 18.859375 -20.617188 18.398438 -20.546875 18.078125 -20.421875 C 17.753906 -20.296875 17.515625 -20.046875 17.359375 -19.671875 C 17.203125 -19.296875 17.125 -18.738281 17.125 -18 L 17.125 -6.296875 C 17.125 -4.316406 16.546875 -2.691406 15.390625 -1.421875 C 14.234375 -0.160156 12.492188 0.46875 10.171875 0.46875 C 7.921875 0.46875 6.171875 -0.144531 4.921875 -1.375 C 3.671875 -2.613281 3.046875 -4.328125 3.046875 -6.515625 L 3.046875 -18 C 3.046875 -18.757812 2.96875 -19.328125 2.8125 -19.703125 C 2.65625 -20.078125 2.410156 -20.320312 2.078125 -20.4375 C 1.742188 -20.550781 1.257812 -20.617188 0.625 -20.640625 L 0.625 -21.15625 L 8.34375 -21.15625 Z M 8.34375 -20.640625 "/></g></g></g><g fill="#ffbd59" fill-opacity="1"><g transform="translate(317.318422, 188.608719)"><g><path d="M 16.140625 -16.359375 L 15.640625 -16.359375 C 15.597656 -17.660156 15.320312 -18.585938 14.8125 -19.140625 C 14.3125 -19.703125 13.445312 -19.984375 12.21875 -19.984375 L 9.875 -19.984375 L 9.875 -3.203125 C 9.875 -2.390625 9.957031 -1.796875 10.125 -1.421875 C 10.300781 -1.054688 10.570312 -0.820312 10.9375 -0.71875 C 11.300781 -0.613281 11.863281 -0.550781 12.625 -0.53125 L 12.625 0 L 4.1875 0 L 4.1875 -0.53125 C 4.957031 -0.53125 5.519531 -0.582031 5.875 -0.6875 C 6.238281 -0.789062 6.507812 -1.023438 6.6875 -1.390625 C 6.863281 -1.765625 6.953125 -2.367188 6.953125 -3.203125 L 6.953125 -19.984375 L 4.625 -19.984375 C 3.320312 -19.984375 2.429688 -19.6875 1.953125 -19.09375 C 1.472656 -18.507812 1.210938 -17.597656 1.171875 -16.359375 L 0.6875 -16.359375 L 0.6875 -21.15625 L 16.140625 -21.15625 Z M 16.140625 -16.359375 "/></g></g></g><g fill="#ffbd59" fill-opacity="1"><g transform="translate(334.13391, 188.608719)"><g><path d="M 6.109375 -21.625 C 6.773438 -21.625 7.351562 -21.554688 7.84375 -21.421875 C 8.34375 -21.285156 8.851562 -21.109375 9.375 -20.890625 C 9.820312 -20.679688 10.128906 -20.578125 10.296875 -20.578125 C 10.835938 -20.578125 11.210938 -20.925781 11.421875 -21.625 L 11.953125 -21.625 L 11.953125 -14.703125 L 11.421875 -14.703125 C 11.359375 -15.984375 11.054688 -17.054688 10.515625 -17.921875 C 9.984375 -18.796875 9.34375 -19.4375 8.59375 -19.84375 C 7.851562 -20.25 7.128906 -20.453125 6.421875 -20.453125 C 5.554688 -20.453125 4.828125 -20.1875 4.234375 -19.65625 C 3.640625 -19.125 3.34375 -18.457031 3.34375 -17.65625 C 3.34375 -16.914062 3.53125 -16.242188 3.90625 -15.640625 C 4.28125 -15.035156 4.8125 -14.457031 5.5 -13.90625 C 5.757812 -13.675781 6.492188 -13.15625 7.703125 -12.34375 C 8.859375 -11.5625 9.757812 -10.898438 10.40625 -10.359375 C 11.0625 -9.828125 11.609375 -9.21875 12.046875 -8.53125 C 12.328125 -8.070312 12.550781 -7.550781 12.71875 -6.96875 C 12.882812 -6.394531 12.96875 -5.84375 12.96875 -5.3125 C 12.96875 -4.226562 12.707031 -3.25 12.1875 -2.375 C 11.675781 -1.5 10.972656 -0.804688 10.078125 -0.296875 C 9.191406 0.210938 8.210938 0.46875 7.140625 0.46875 C 6.554688 0.46875 6.046875 0.40625 5.609375 0.28125 C 5.179688 0.15625 4.695312 -0.0195312 4.15625 -0.25 C 3.539062 -0.519531 3.097656 -0.65625 2.828125 -0.65625 C 2.203125 -0.65625 1.828125 -0.289062 1.703125 0.4375 L 1.109375 0.4375 L 1.109375 -6.671875 L 1.703125 -6.671875 C 1.765625 -5.367188 2.050781 -4.269531 2.5625 -3.375 C 3.082031 -2.488281 3.726562 -1.820312 4.5 -1.375 C 5.28125 -0.9375 6.085938 -0.71875 6.921875 -0.71875 C 7.867188 -0.71875 8.644531 -1.035156 9.25 -1.671875 C 9.863281 -2.316406 10.171875 -3.144531 10.171875 -4.15625 C 10.171875 -5.414062 9.6875 -6.515625 8.71875 -7.453125 C 8.195312 -7.941406 7.304688 -8.625 6.046875 -9.5 C 4.722656 -10.425781 3.804688 -11.128906 3.296875 -11.609375 C 2.546875 -12.265625 1.96875 -12.96875 1.5625 -13.71875 C 1.164062 -14.476562 0.96875 -15.347656 0.96875 -16.328125 C 0.96875 -17.878906 1.441406 -19.148438 2.390625 -20.140625 C 3.335938 -21.128906 4.578125 -21.625 6.109375 -21.625 Z M 6.109375 -21.625 "/></g></g></g><g fill="#000000" fill-opacity="1"><g transform="translate(181.217257, 208.049943)"><g><path d="M 6.765625 -6.96875 L 6.53125 -6.96875 C 6.507812 -7.414062 6.382812 -7.757812 6.15625 -8 C 5.925781 -8.25 5.601562 -8.375 5.1875 -8.375 L 2.625 -8.375 L 2.625 -4.90625 L 4.140625 -4.90625 C 4.566406 -4.90625 4.867188 -4.992188 5.046875 -5.171875 C 5.222656 -5.359375 5.3125 -5.632812 5.3125 -6 L 5.3125 -6.15625 L 5.53125 -6.15625 L 5.53125 -3.140625 L 5.3125 -3.140625 L 5.3125 -3.25 C 5.3125 -3.632812 5.242188 -3.921875 5.109375 -4.109375 C 4.972656 -4.304688 4.707031 -4.40625 4.3125 -4.40625 L 2.625 -4.40625 L 2.625 -1.328125 C 2.625 -0.992188 2.660156 -0.75 2.734375 -0.59375 C 2.804688 -0.4375 2.921875 -0.332031 3.078125 -0.28125 C 3.242188 -0.238281 3.492188 -0.21875 3.828125 -0.21875 L 3.828125 0 L 0.28125 0 L 0.28125 -0.21875 C 0.582031 -0.21875 0.8125 -0.242188 0.96875 -0.296875 C 1.125 -0.347656 1.234375 -0.453125 1.296875 -0.609375 C 1.367188 -0.765625 1.40625 -1.003906 1.40625 -1.328125 L 1.40625 -7.546875 C 1.40625 -7.890625 1.375 -8.132812 1.3125 -8.28125 C 1.25 -8.425781 1.144531 -8.519531 1 -8.5625 C 0.851562 -8.601562 0.613281 -8.628906 0.28125 -8.640625 L 0.28125 -8.859375 L 6.6875 -8.859375 Z M 6.765625 -6.96875 "/></g></g></g><g fill="#000000" fill-opacity="1"><g transform="translate(188.261095, 208.049943)"><g><path d="M 6.515625 -6.640625 C 6.515625 -6.085938 6.320312 -5.601562 5.9375 -5.1875 C 5.5625 -4.769531 5.039062 -4.5 4.375 -4.375 L 6.46875 -0.9375 C 6.632812 -0.65625 6.78125 -0.460938 6.90625 -0.359375 C 7.039062 -0.265625 7.203125 -0.21875 7.390625 -0.21875 L 7.46875 -0.21875 L 7.46875 0 L 5.765625 0 L 3.203125 -4.21875 L 2.59375 -4.21875 L 2.59375 -1.328125 C 2.59375 -0.984375 2.628906 -0.734375 2.703125 -0.578125 C 2.773438 -0.429688 2.882812 -0.332031 3.03125 -0.28125 C 3.1875 -0.238281 3.425781 -0.21875 3.75 -0.21875 L 3.75 0 L 0.21875 0 L 0.21875 -0.21875 C 0.539062 -0.21875 0.78125 -0.238281 0.9375 -0.28125 C 1.09375 -0.332031 1.203125 -0.4375 1.265625 -0.59375 C 1.335938 -0.75 1.375 -0.992188 1.375 -1.328125 L 1.375 -7.53125 C 1.375 -7.863281 1.335938 -8.109375 1.265625 -8.265625 C 1.191406 -8.421875 1.078125 -8.519531 0.921875 -8.5625 C 0.765625 -8.613281 0.53125 -8.640625 0.21875 -8.640625 L 0.21875 -8.859375 L 3.90625 -8.859375 C 4.394531 -8.859375 4.835938 -8.765625 5.234375 -8.578125 C 5.640625 -8.390625 5.953125 -8.125 6.171875 -7.78125 C 6.398438 -7.445312 6.515625 -7.066406 6.515625 -6.640625 Z M 2.59375 -8.234375 L 2.59375 -4.625 L 3.03125 -4.625 C 3.71875 -4.625 4.226562 -4.8125 4.5625 -5.1875 C 4.894531 -5.5625 5.0625 -6.003906 5.0625 -6.515625 C 5.0625 -7.054688 4.910156 -7.503906 4.609375 -7.859375 C 4.316406 -8.222656 3.921875 -8.40625 3.421875 -8.40625 C 3.128906 -8.40625 2.851562 -8.347656 2.59375 -8.234375 Z M 2.59375 -8.234375 "/></g></g></g><g fill="#000000" fill-opacity="1"><g transform="translate(195.980729, 208.049943)"><g><path d="M 3.859375 -9.0625 C 4.609375 -9.0625 5.25 -8.84375 5.78125 -8.40625 C 6.3125 -7.96875 6.707031 -7.394531 6.96875 -6.6875 C 7.238281 -5.976562 7.375 -5.226562 7.375 -4.4375 C 7.375 -3.625 7.238281 -2.867188 6.96875 -2.171875 C 6.707031 -1.472656 6.3125 -0.90625 5.78125 -0.46875 C 5.25 -0.03125 4.609375 0.1875 3.859375 0.1875 C 3.128906 0.1875 2.5 -0.0195312 1.96875 -0.4375 C 1.445312 -0.851562 1.046875 -1.414062 0.765625 -2.125 C 0.484375 -2.832031 0.34375 -3.601562 0.34375 -4.4375 C 0.34375 -5.226562 0.472656 -5.976562 0.734375 -6.6875 C 1.003906 -7.394531 1.40625 -7.96875 1.9375 -8.40625 C 2.46875 -8.84375 3.109375 -9.0625 3.859375 -9.0625 Z M 1.8125 -4.4375 C 1.8125 -2.96875 1.96875 -1.90625 2.28125 -1.25 C 2.601562 -0.59375 3.128906 -0.265625 3.859375 -0.265625 C 4.617188 -0.265625 5.148438 -0.613281 5.453125 -1.3125 C 5.765625 -2.007812 5.921875 -3.050781 5.921875 -4.4375 C 5.921875 -5.925781 5.75 -6.992188 5.40625 -7.640625 C 5.070312 -8.285156 4.550781 -8.609375 3.84375 -8.609375 C 3.25 -8.609375 2.800781 -8.390625 2.5 -7.953125 C 2.195312 -7.515625 2.003906 -7 1.921875 -6.40625 C 1.847656 -5.820312 1.8125 -5.164062 1.8125 -4.4375 Z M 1.8125 -4.4375 "/></g></g></g><g fill="#000000" fill-opacity="1"><g transform="translate(203.700364, 208.049943)"><g><path d="M 4.890625 -2.328125 L 4.90625 -2.328125 L 7.28125 -8.859375 L 9.4375 -8.859375 L 9.4375 -8.640625 C 9.195312 -8.628906 9.007812 -8.597656 8.875 -8.546875 C 8.75 -8.492188 8.65625 -8.390625 8.59375 -8.234375 C 8.53125 -8.085938 8.5 -7.859375 8.5 -7.546875 L 8.5 -1.34375 C 8.5 -1.019531 8.53125 -0.78125 8.59375 -0.625 C 8.65625 -0.46875 8.75 -0.363281 8.875 -0.3125 C 9.007812 -0.257812 9.195312 -0.226562 9.4375 -0.21875 L 9.4375 0 L 6.171875 0 L 6.171875 -0.21875 C 6.460938 -0.21875 6.679688 -0.238281 6.828125 -0.28125 C 6.984375 -0.332031 7.097656 -0.4375 7.171875 -0.59375 C 7.242188 -0.757812 7.28125 -1.007812 7.28125 -1.34375 L 7.28125 -7.375 L 7.25 -7.375 L 4.609375 0 L 4.453125 0 L 1.8125 -7.21875 L 1.796875 -7.21875 L 1.796875 -1.34375 C 1.796875 -1 1.828125 -0.75 1.890625 -0.59375 C 1.960938 -0.4375 2.070312 -0.335938 2.21875 -0.296875 C 2.363281 -0.253906 2.582031 -0.226562 2.875 -0.21875 L 2.875 0 L 0.265625 0 L 0.265625 -0.21875 C 0.535156 -0.226562 0.742188 -0.253906 0.890625 -0.296875 C 1.035156 -0.347656 1.140625 -0.453125 1.203125 -0.609375 C 1.265625 -0.765625 1.296875 -1.007812 1.296875 -1.34375 L 1.296875 -7.546875 C 1.296875 -7.859375 1.265625 -8.085938 1.203125 -8.234375 C 1.140625 -8.390625 1.035156 -8.492188 0.890625 -8.546875 C 0.742188 -8.597656 0.535156 -8.628906 0.265625 -8.640625 L 0.265625 -8.859375 L 2.515625 -8.859375 Z M 4.890625 -2.328125 "/></g></g></g><g fill="#000000" fill-opacity="1"><g transform="translate(213.317417, 208.049943)"><g/></g></g><g fill="#000000" fill-opacity="1"><g transform="translate(215.786663, 208.049943)"><g><path d="M 6.765625 -6.84375 L 6.546875 -6.84375 C 6.535156 -7.394531 6.421875 -7.785156 6.203125 -8.015625 C 5.992188 -8.253906 5.632812 -8.375 5.125 -8.375 L 4.140625 -8.375 L 4.140625 -1.34375 C 4.140625 -1 4.175781 -0.75 4.25 -0.59375 C 4.320312 -0.4375 4.429688 -0.335938 4.578125 -0.296875 C 4.734375 -0.253906 4.972656 -0.226562 5.296875 -0.21875 L 5.296875 0 L 1.75 0 L 1.75 -0.21875 C 2.070312 -0.21875 2.304688 -0.238281 2.453125 -0.28125 C 2.609375 -0.320312 2.722656 -0.421875 2.796875 -0.578125 C 2.867188 -0.734375 2.90625 -0.988281 2.90625 -1.34375 L 2.90625 -8.375 L 1.9375 -8.375 C 1.394531 -8.375 1.019531 -8.25 0.8125 -8 C 0.613281 -7.75 0.507812 -7.363281 0.5 -6.84375 L 0.28125 -6.84375 L 0.28125 -8.859375 L 6.765625 -8.859375 Z M 6.765625 -6.84375 "/></g></g></g><g fill="#000000" fill-opacity="1"><g transform="translate(222.830501, 208.049943)"><g><path d="M 3.71875 -8.640625 C 3.414062 -8.640625 3.1875 -8.613281 3.03125 -8.5625 C 2.882812 -8.519531 2.773438 -8.421875 2.703125 -8.265625 C 2.628906 -8.109375 2.59375 -7.863281 2.59375 -7.53125 L 2.59375 -4.90625 L 5.765625 -4.90625 L 5.765625 -7.546875 C 5.765625 -7.878906 5.726562 -8.117188 5.65625 -8.265625 C 5.582031 -8.421875 5.46875 -8.519531 5.3125 -8.5625 C 5.164062 -8.613281 4.929688 -8.640625 4.609375 -8.640625 L 4.609375 -8.859375 L 8.15625 -8.859375 L 8.15625 -8.640625 L 8.0625 -8.640625 C 7.769531 -8.628906 7.550781 -8.597656 7.40625 -8.546875 C 7.269531 -8.503906 7.164062 -8.40625 7.09375 -8.25 C 7.019531 -8.09375 6.984375 -7.851562 6.984375 -7.53125 L 6.984375 -1.34375 C 6.984375 -1 7.019531 -0.75 7.09375 -0.59375 C 7.164062 -0.4375 7.28125 -0.332031 7.4375 -0.28125 C 7.59375 -0.238281 7.832031 -0.21875 8.15625 -0.21875 L 8.15625 0 L 4.609375 0 L 4.609375 -0.21875 L 4.734375 -0.21875 C 5.003906 -0.21875 5.210938 -0.242188 5.359375 -0.296875 C 5.503906 -0.359375 5.609375 -0.46875 5.671875 -0.625 C 5.734375 -0.789062 5.765625 -1.03125 5.765625 -1.34375 L 5.765625 -4.40625 L 2.59375 -4.40625 L 2.59375 -1.34375 C 2.59375 -1.03125 2.625 -0.789062 2.6875 -0.625 C 2.75 -0.46875 2.847656 -0.359375 2.984375 -0.296875 C 3.128906 -0.242188 3.332031 -0.21875 3.59375 -0.21875 L 3.71875 -0.21875 L 3.71875 0 L 0.234375 0 L 0.234375 -0.21875 L 0.34375 -0.21875 C 0.601562 -0.21875 0.804688 -0.242188 0.953125 -0.296875 C 1.097656 -0.359375 1.203125 -0.46875 1.265625 -0.625 C 1.328125 -0.78125 1.359375 -1.019531 1.359375 -1.34375 L 1.359375 -7.53125 C 1.359375 -7.976562 1.285156 -8.273438 1.140625 -8.421875 C 1.003906 -8.566406 0.765625 -8.640625 0.421875 -8.640625 L 0.234375 -8.640625 L 0.234375 -8.859375 L 3.71875 -8.859375 Z M 3.71875 -8.640625 "/></g></g></g><g fill="#000000" fill-opacity="1"><g transform="translate(231.225932, 208.049943)"><g><path d="M 6.140625 -6.9375 L 5.90625 -6.9375 C 5.851562 -7.34375 5.773438 -7.644531 5.671875 -7.84375 C 5.578125 -8.050781 5.429688 -8.191406 5.234375 -8.265625 C 5.046875 -8.335938 4.773438 -8.375 4.421875 -8.375 L 2.546875 -8.375 L 2.546875 -4.90625 L 4 -4.90625 C 4.34375 -4.90625 4.597656 -4.953125 4.765625 -5.046875 C 4.941406 -5.148438 5.054688 -5.296875 5.109375 -5.484375 C 5.171875 -5.671875 5.203125 -5.921875 5.203125 -6.234375 L 5.421875 -6.234375 L 5.421875 -3.140625 L 5.203125 -3.140625 C 5.203125 -3.578125 5.132812 -3.894531 5 -4.09375 C 4.875 -4.300781 4.613281 -4.40625 4.21875 -4.40625 L 2.546875 -4.40625 L 2.546875 -1.171875 C 2.546875 -0.898438 2.582031 -0.71875 2.65625 -0.625 C 2.726562 -0.539062 2.882812 -0.5 3.125 -0.5 L 4.5 -0.5 C 5.050781 -0.5 5.472656 -0.644531 5.765625 -0.9375 C 6.054688 -1.238281 6.300781 -1.6875 6.5 -2.28125 L 6.71875 -2.203125 L 6.046875 0 L 0.1875 0 L 0.1875 -0.21875 C 0.5 -0.21875 0.734375 -0.238281 0.890625 -0.28125 C 1.046875 -0.332031 1.15625 -0.4375 1.21875 -0.59375 C 1.289062 -0.75 1.328125 -1 1.328125 -1.34375 L 1.328125 -7.546875 C 1.328125 -7.859375 1.296875 -8.085938 1.234375 -8.234375 C 1.171875 -8.390625 1.066406 -8.492188 0.921875 -8.546875 C 0.785156 -8.609375 0.578125 -8.640625 0.296875 -8.640625 L 0.1875 -8.640625 L 0.1875 -8.859375 L 6 -8.859375 Z M 6.140625 -6.9375 "/></g></g></g><g fill="#000000" fill-opacity="1"><g transform="translate(238.26977, 208.049943)"><g/></g></g><g fill="#000000" fill-opacity="1"><g transform="translate(240.739016, 208.049943)"><g><path d="M 3.71875 -8.640625 C 3.414062 -8.640625 3.1875 -8.613281 3.03125 -8.5625 C 2.882812 -8.519531 2.773438 -8.421875 2.703125 -8.265625 C 2.628906 -8.109375 2.59375 -7.863281 2.59375 -7.53125 L 2.59375 -4.90625 L 5.765625 -4.90625 L 5.765625 -7.546875 C 5.765625 -7.878906 5.726562 -8.117188 5.65625 -8.265625 C 5.582031 -8.421875 5.46875 -8.519531 5.3125 -8.5625 C 5.164062 -8.613281 4.929688 -8.640625 4.609375 -8.640625 L 4.609375 -8.859375 L 8.15625 -8.859375 L 8.15625 -8.640625 L 8.0625 -8.640625 C 7.769531 -8.628906 7.550781 -8.597656 7.40625 -8.546875 C 7.269531 -8.503906 7.164062 -8.40625 7.09375 -8.25 C 7.019531 -8.09375 6.984375 -7.851562 6.984375 -7.53125 L 6.984375 -1.34375 C 6.984375 -1 7.019531 -0.75 7.09375 -0.59375 C 7.164062 -0.4375 7.28125 -0.332031 7.4375 -0.28125 C 7.59375 -0.238281 7.832031 -0.21875 8.15625 -0.21875 L 8.15625 0 L 4.609375 0 L 4.609375 -0.21875 L 4.734375 -0.21875 C 5.003906 -0.21875 5.210938 -0.242188 5.359375 -0.296875 C 5.503906 -0.359375 5.609375 -0.46875 5.671875 -0.625 C 5.734375 -0.789062 5.765625 -1.03125 5.765625 -1.34375 L 5.765625 -4.40625 L 2.59375 -4.40625 L 2.59375 -1.34375 C 2.59375 -1.03125 2.625 -0.789062 2.6875 -0.625 C 2.75 -0.46875 2.847656 -0.359375 2.984375 -0.296875 C 3.128906 -0.242188 3.332031 -0.21875 3.59375 -0.21875 L 3.71875 -0.21875 L 3.71875 0 L 0.234375 0 L 0.234375 -0.21875 L 0.34375 -0.21875 C 0.601562 -0.21875 0.804688 -0.242188 0.953125 -0.296875 C 1.097656 -0.359375 1.203125 -0.46875 1.265625 -0.625 C 1.328125 -0.78125 1.359375 -1.019531 1.359375 -1.34375 L 1.359375 -7.53125 C 1.359375 -7.976562 1.285156 -8.273438 1.140625 -8.421875 C 1.003906 -8.566406 0.765625 -8.640625 0.421875 -8.640625 L 0.234375 -8.640625 L 0.234375 -8.859375 L 3.71875 -8.859375 Z M 3.71875 -8.640625 "/></g></g></g><g fill="#000000" fill-opacity="1"><g transform="translate(249.134447, 208.049943)"><g><path d="M 3.859375 -9.0625 C 4.609375 -9.0625 5.25 -8.84375 5.78125 -8.40625 C 6.3125 -7.96875 6.707031 -7.394531 6.96875 -6.6875 C 7.238281 -5.976562 7.375 -5.226562 7.375 -4.4375 C 7.375 -3.625 7.238281 -2.867188 6.96875 -2.171875 C 6.707031 -1.472656 6.3125 -0.90625 5.78125 -0.46875 C 5.25 -0.03125 4.609375 0.1875 3.859375 0.1875 C 3.128906 0.1875 2.5 -0.0195312 1.96875 -0.4375 C 1.445312 -0.851562 1.046875 -1.414062 0.765625 -2.125 C 0.484375 -2.832031 0.34375 -3.601562 0.34375 -4.4375 C 0.34375 -5.226562 0.472656 -5.976562 0.734375 -6.6875 C 1.003906 -7.394531 1.40625 -7.96875 1.9375 -8.40625 C 2.46875 -8.84375 3.109375 -9.0625 3.859375 -9.0625 Z M 1.8125 -4.4375 C 1.8125 -2.96875 1.96875 -1.90625 2.28125 -1.25 C 2.601562 -0.59375 3.128906 -0.265625 3.859375 -0.265625 C 4.617188 -0.265625 5.148438 -0.613281 5.453125 -1.3125 C 5.765625 -2.007812 5.921875 -3.050781 5.921875 -4.4375 C 5.921875 -5.925781 5.75 -6.992188 5.40625 -7.640625 C 5.070312 -8.285156 4.550781 -8.609375 3.84375 -8.609375 C 3.25 -8.609375 2.800781 -8.390625 2.5 -7.953125 C 2.195312 -7.515625 2.003906 -7 1.921875 -6.40625 C 1.847656 -5.820312 1.8125 -5.164062 1.8125 -4.4375 Z M 1.8125 -4.4375 "/></g></g></g><g fill="#000000" fill-opacity="1"><g transform="translate(256.854081, 208.049943)"><g><path d="M 3.5 -8.640625 C 3.238281 -8.628906 3.035156 -8.597656 2.890625 -8.546875 C 2.753906 -8.492188 2.65625 -8.390625 2.59375 -8.234375 C 2.53125 -8.085938 2.5 -7.859375 2.5 -7.546875 L 2.5 -2.4375 C 2.5 -1.800781 2.664062 -1.28125 3 -0.875 C 3.332031 -0.46875 3.828125 -0.265625 4.484375 -0.265625 C 4.960938 -0.265625 5.363281 -0.375 5.6875 -0.59375 C 6.019531 -0.8125 6.269531 -1.101562 6.4375 -1.46875 C 6.601562 -1.84375 6.6875 -2.242188 6.6875 -2.671875 L 6.6875 -7.546875 C 6.6875 -7.859375 6.648438 -8.09375 6.578125 -8.25 C 6.515625 -8.40625 6.414062 -8.503906 6.28125 -8.546875 C 6.144531 -8.597656 5.9375 -8.628906 5.65625 -8.640625 L 5.65625 -8.859375 L 8.15625 -8.859375 L 8.15625 -8.640625 C 7.90625 -8.628906 7.710938 -8.597656 7.578125 -8.546875 C 7.441406 -8.492188 7.335938 -8.390625 7.265625 -8.234375 C 7.203125 -8.085938 7.171875 -7.859375 7.171875 -7.546875 L 7.171875 -2.640625 C 7.171875 -1.804688 6.925781 -1.125 6.4375 -0.59375 C 5.957031 -0.0703125 5.234375 0.1875 4.265625 0.1875 C 3.316406 0.1875 2.582031 -0.0664062 2.0625 -0.578125 C 1.539062 -1.097656 1.28125 -1.816406 1.28125 -2.734375 L 1.28125 -7.546875 C 1.28125 -7.859375 1.242188 -8.09375 1.171875 -8.25 C 1.109375 -8.40625 1.003906 -8.503906 0.859375 -8.546875 C 0.722656 -8.597656 0.523438 -8.628906 0.265625 -8.640625 L 0.265625 -8.859375 L 3.5 -8.859375 Z M 3.5 -8.640625 "/></g></g></g><g fill="#000000" fill-opacity="1"><g transform="translate(265.249512, 208.049943)"><g><path d="M 2.5625 -9.0625 C 2.84375 -9.0625 3.082031 -9.03125 3.28125 -8.96875 C 3.488281 -8.914062 3.703125 -8.84375 3.921875 -8.75 C 4.117188 -8.664062 4.25 -8.625 4.3125 -8.625 C 4.539062 -8.625 4.695312 -8.769531 4.78125 -9.0625 L 5 -9.0625 L 5 -6.15625 L 4.78125 -6.15625 C 4.757812 -6.695312 4.632812 -7.148438 4.40625 -7.515625 C 4.175781 -7.878906 3.90625 -8.144531 3.59375 -8.3125 C 3.289062 -8.476562 2.988281 -8.5625 2.6875 -8.5625 C 2.320312 -8.5625 2.015625 -8.453125 1.765625 -8.234375 C 1.523438 -8.015625 1.40625 -7.734375 1.40625 -7.390625 C 1.40625 -7.078125 1.484375 -6.796875 1.640625 -6.546875 C 1.796875 -6.296875 2.015625 -6.054688 2.296875 -5.828125 C 2.410156 -5.734375 2.71875 -5.515625 3.21875 -5.171875 C 3.707031 -4.847656 4.085938 -4.570312 4.359375 -4.34375 C 4.628906 -4.113281 4.859375 -3.859375 5.046875 -3.578125 C 5.160156 -3.378906 5.253906 -3.160156 5.328125 -2.921875 C 5.398438 -2.679688 5.4375 -2.445312 5.4375 -2.21875 C 5.4375 -1.769531 5.328125 -1.359375 5.109375 -0.984375 C 4.890625 -0.617188 4.59375 -0.332031 4.21875 -0.125 C 3.851562 0.0820312 3.441406 0.1875 2.984375 0.1875 C 2.742188 0.1875 2.53125 0.160156 2.34375 0.109375 C 2.164062 0.0546875 1.960938 -0.015625 1.734375 -0.109375 C 1.484375 -0.210938 1.300781 -0.265625 1.1875 -0.265625 C 0.925781 -0.265625 0.769531 -0.113281 0.71875 0.1875 L 0.46875 0.1875 L 0.46875 -2.796875 L 0.71875 -2.796875 C 0.738281 -2.242188 0.859375 -1.78125 1.078125 -1.40625 C 1.296875 -1.039062 1.566406 -0.765625 1.890625 -0.578125 C 2.210938 -0.390625 2.550781 -0.296875 2.90625 -0.296875 C 3.300781 -0.296875 3.625 -0.429688 3.875 -0.703125 C 4.132812 -0.972656 4.265625 -1.316406 4.265625 -1.734375 C 4.265625 -2.265625 4.0625 -2.726562 3.65625 -3.125 C 3.4375 -3.332031 3.0625 -3.617188 2.53125 -3.984375 C 1.976562 -4.367188 1.59375 -4.660156 1.375 -4.859375 C 1.0625 -5.140625 0.820312 -5.4375 0.65625 -5.75 C 0.488281 -6.070312 0.40625 -6.4375 0.40625 -6.84375 C 0.40625 -7.488281 0.601562 -8.019531 1 -8.4375 C 1.394531 -8.851562 1.914062 -9.0625 2.5625 -9.0625 Z M 2.5625 -9.0625 "/></g></g></g><g fill="#000000" fill-opacity="1"><g transform="translate(271.071728, 208.049943)"><g><path d="M 6.140625 -6.9375 L 5.90625 -6.9375 C 5.851562 -7.34375 5.773438 -7.644531 5.671875 -7.84375 C 5.578125 -8.050781 5.429688 -8.191406 5.234375 -8.265625 C 5.046875 -8.335938 4.773438 -8.375 4.421875 -8.375 L 2.546875 -8.375 L 2.546875 -4.90625 L 4 -4.90625 C 4.34375 -4.90625 4.597656 -4.953125 4.765625 -5.046875 C 4.941406 -5.148438 5.054688 -5.296875 5.109375 -5.484375 C 5.171875 -5.671875 5.203125 -5.921875 5.203125 -6.234375 L 5.421875 -6.234375 L 5.421875 -3.140625 L 5.203125 -3.140625 C 5.203125 -3.578125 5.132812 -3.894531 5 -4.09375 C 4.875 -4.300781 4.613281 -4.40625 4.21875 -4.40625 L 2.546875 -4.40625 L 2.546875 -1.171875 C 2.546875 -0.898438 2.582031 -0.71875 2.65625 -0.625 C 2.726562 -0.539062 2.882812 -0.5 3.125 -0.5 L 4.5 -0.5 C 5.050781 -0.5 5.472656 -0.644531 5.765625 -0.9375 C 6.054688 -1.238281 6.300781 -1.6875 6.5 -2.28125 L 6.71875 -2.203125 L 6.046875 0 L 0.1875 0 L 0.1875 -0.21875 C 0.5 -0.21875 0.734375 -0.238281 0.890625 -0.28125 C 1.046875 -0.332031 1.15625 -0.4375 1.21875 -0.59375 C 1.289062 -0.75 1.328125 -1 1.328125 -1.34375 L 1.328125 -7.546875 C 1.328125 -7.859375 1.296875 -8.085938 1.234375 -8.234375 C 1.171875 -8.390625 1.066406 -8.492188 0.921875 -8.546875 C 0.785156 -8.609375 0.578125 -8.640625 0.296875 -8.640625 L 0.1875 -8.640625 L 0.1875 -8.859375 L 6 -8.859375 Z M 6.140625 -6.9375 "/></g></g></g><g fill="#000000" fill-opacity="1"><g transform="translate(278.115566, 208.049943)"><g/></g></g><g fill="#000000" fill-opacity="1"><g transform="translate(280.584812, 208.049943)"><g><path d="M 3.859375 -9.0625 C 4.609375 -9.0625 5.25 -8.84375 5.78125 -8.40625 C 6.3125 -7.96875 6.707031 -7.394531 6.96875 -6.6875 C 7.238281 -5.976562 7.375 -5.226562 7.375 -4.4375 C 7.375 -3.625 7.238281 -2.867188 6.96875 -2.171875 C 6.707031 -1.472656 6.3125 -0.90625 5.78125 -0.46875 C 5.25 -0.03125 4.609375 0.1875 3.859375 0.1875 C 3.128906 0.1875 2.5 -0.0195312 1.96875 -0.4375 C 1.445312 -0.851562 1.046875 -1.414062 0.765625 -2.125 C 0.484375 -2.832031 0.34375 -3.601562 0.34375 -4.4375 C 0.34375 -5.226562 0.472656 -5.976562 0.734375 -6.6875 C 1.003906 -7.394531 1.40625 -7.96875 1.9375 -8.40625 C 2.46875 -8.84375 3.109375 -9.0625 3.859375 -9.0625 Z M 1.8125 -4.4375 C 1.8125 -2.96875 1.96875 -1.90625 2.28125 -1.25 C 2.601562 -0.59375 3.128906 -0.265625 3.859375 -0.265625 C 4.617188 -0.265625 5.148438 -0.613281 5.453125 -1.3125 C 5.765625 -2.007812 5.921875 -3.050781 5.921875 -4.4375 C 5.921875 -5.925781 5.75 -6.992188 5.40625 -7.640625 C 5.070312 -8.285156 4.550781 -8.609375 3.84375 -8.609375 C 3.25 -8.609375 2.800781 -8.390625 2.5 -7.953125 C 2.195312 -7.515625 2.003906 -7 1.921875 -6.40625 C 1.847656 -5.820312 1.8125 -5.164062 1.8125 -4.4375 Z M 1.8125 -4.4375 "/></g></g></g><g fill="#000000" fill-opacity="1"><g transform="translate(288.304446, 208.049943)"><g><path d="M 6.765625 -6.96875 L 6.53125 -6.96875 C 6.507812 -7.414062 6.382812 -7.757812 6.15625 -8 C 5.925781 -8.25 5.601562 -8.375 5.1875 -8.375 L 2.625 -8.375 L 2.625 -4.90625 L 4.140625 -4.90625 C 4.566406 -4.90625 4.867188 -4.992188 5.046875 -5.171875 C 5.222656 -5.359375 5.3125 -5.632812 5.3125 -6 L 5.3125 -6.15625 L 5.53125 -6.15625 L 5.53125 -3.140625 L 5.3125 -3.140625 L 5.3125 -3.25 C 5.3125 -3.632812 5.242188 -3.921875 5.109375 -4.109375 C 4.972656 -4.304688 4.707031 -4.40625 4.3125 -4.40625 L 2.625 -4.40625 L 2.625 -1.328125 C 2.625 -0.992188 2.660156 -0.75 2.734375 -0.59375 C 2.804688 -0.4375 2.921875 -0.332031 3.078125 -0.28125 C 3.242188 -0.238281 3.492188 -0.21875 3.828125 -0.21875 L 3.828125 0 L 0.28125 0 L 0.28125 -0.21875 C 0.582031 -0.21875 0.8125 -0.242188 0.96875 -0.296875 C 1.125 -0.347656 1.234375 -0.453125 1.296875 -0.609375 C 1.367188 -0.765625 1.40625 -1.003906 1.40625 -1.328125 L 1.40625 -7.546875 C 1.40625 -7.890625 1.375 -8.132812 1.3125 -8.28125 C 1.25 -8.425781 1.144531 -8.519531 1 -8.5625 C 0.851562 -8.601562 0.613281 -8.628906 0.28125 -8.640625 L 0.28125 -8.859375 L 6.6875 -8.859375 Z M 6.765625 -6.96875 "/></g></g></g><g fill="#000000" fill-opacity="1"><g transform="translate(295.348284, 208.049943)"><g/></g></g><g fill="#000000" fill-opacity="1"><g transform="translate(297.81753, 208.049943)"><g><path d="M 4.890625 -2.328125 L 4.90625 -2.328125 L 7.28125 -8.859375 L 9.4375 -8.859375 L 9.4375 -8.640625 C 9.195312 -8.628906 9.007812 -8.597656 8.875 -8.546875 C 8.75 -8.492188 8.65625 -8.390625 8.59375 -8.234375 C 8.53125 -8.085938 8.5 -7.859375 8.5 -7.546875 L 8.5 -1.34375 C 8.5 -1.019531 8.53125 -0.78125 8.59375 -0.625 C 8.65625 -0.46875 8.75 -0.363281 8.875 -0.3125 C 9.007812 -0.257812 9.195312 -0.226562 9.4375 -0.21875 L 9.4375 0 L 6.171875 0 L 6.171875 -0.21875 C 6.460938 -0.21875 6.679688 -0.238281 6.828125 -0.28125 C 6.984375 -0.332031 7.097656 -0.4375 7.171875 -0.59375 C 7.242188 -0.757812 7.28125 -1.007812 7.28125 -1.34375 L 7.28125 -7.375 L 7.25 -7.375 L 4.609375 0 L 4.453125 0 L 1.8125 -7.21875 L 1.796875 -7.21875 L 1.796875 -1.34375 C 1.796875 -1 1.828125 -0.75 1.890625 -0.59375 C 1.960938 -0.4375 2.070312 -0.335938 2.21875 -0.296875 C 2.363281 -0.253906 2.582031 -0.226562 2.875 -0.21875 L 2.875 0 L 0.265625 0 L 0.265625 -0.21875 C 0.535156 -0.226562 0.742188 -0.253906 0.890625 -0.296875 C 1.035156 -0.347656 1.140625 -0.453125 1.203125 -0.609375 C 1.265625 -0.765625 1.296875 -1.007812 1.296875 -1.34375 L 1.296875 -7.546875 C 1.296875 -7.859375 1.265625 -8.085938 1.203125 -8.234375 C 1.140625 -8.390625 1.035156 -8.492188 0.890625 -8.546875 C 0.742188 -8.597656 0.535156 -8.628906 0.265625 -8.640625 L 0.265625 -8.859375 L 2.515625 -8.859375 Z M 4.890625 -2.328125 "/></g></g></g><g fill="#000000" fill-opacity="1"><g transform="translate(307.434583, 208.049943)"><g><path d="M 3.59375 -8.640625 C 3.3125 -8.640625 3.097656 -8.613281 2.953125 -8.5625 C 2.804688 -8.519531 2.695312 -8.421875 2.625 -8.265625 C 2.550781 -8.109375 2.515625 -7.867188 2.515625 -7.546875 L 2.515625 -1.34375 C 2.515625 -1 2.550781 -0.75 2.625 -0.59375 C 2.695312 -0.4375 2.800781 -0.335938 2.9375 -0.296875 C 3.082031 -0.253906 3.300781 -0.226562 3.59375 -0.21875 L 3.59375 0 L 0.1875 0 L 0.1875 -0.21875 C 0.476562 -0.21875 0.695312 -0.242188 0.84375 -0.296875 C 1 -0.347656 1.109375 -0.453125 1.171875 -0.609375 C 1.242188 -0.765625 1.28125 -1.007812 1.28125 -1.34375 L 1.28125 -7.546875 C 1.28125 -7.867188 1.242188 -8.101562 1.171875 -8.25 C 1.097656 -8.40625 0.988281 -8.503906 0.84375 -8.546875 C 0.707031 -8.597656 0.488281 -8.628906 0.1875 -8.640625 L 0.1875 -8.859375 L 3.59375 -8.859375 Z M 3.59375 -8.640625 "/></g></g></g><g fill="#000000" fill-opacity="1"><g transform="translate(311.229421, 208.049943)"><g><path d="M 6.5625 -2.46875 L 6.59375 -2.46875 L 6.59375 -7.546875 C 6.59375 -7.867188 6.554688 -8.109375 6.484375 -8.265625 C 6.410156 -8.421875 6.289062 -8.519531 6.125 -8.5625 C 5.96875 -8.613281 5.738281 -8.640625 5.4375 -8.640625 L 5.4375 -8.859375 L 8 -8.859375 L 8 -8.640625 C 7.675781 -8.640625 7.441406 -8.570312 7.296875 -8.4375 C 7.148438 -8.300781 7.078125 -8.078125 7.078125 -7.765625 L 7.078125 0.140625 L 6.90625 0.140625 L 1.859375 -7.046875 L 1.828125 -7.046875 L 1.828125 -1.34375 C 1.828125 -1.019531 1.863281 -0.773438 1.9375 -0.609375 C 2.007812 -0.453125 2.117188 -0.347656 2.265625 -0.296875 C 2.410156 -0.253906 2.625 -0.226562 2.90625 -0.21875 L 3.078125 -0.21875 L 3.078125 0 L 0.34375 0 L 0.34375 -0.21875 C 0.707031 -0.238281 0.960938 -0.304688 1.109375 -0.421875 C 1.265625 -0.546875 1.34375 -0.789062 1.34375 -1.15625 L 1.34375 -7.765625 C 1.300781 -7.804688 1.257812 -7.851562 1.21875 -7.90625 C 1.1875 -7.96875 1.144531 -8.03125 1.09375 -8.09375 C 0.925781 -8.3125 0.785156 -8.457031 0.671875 -8.53125 C 0.566406 -8.601562 0.390625 -8.640625 0.140625 -8.640625 L 0.140625 -8.859375 L 2.0625 -8.859375 Z M 6.5625 -2.46875 "/></g></g></g><g fill="#000000" fill-opacity="1"><g transform="translate(319.624852, 208.049943)"><g><path d="M 6.5625 -2.46875 L 6.59375 -2.46875 L 6.59375 -7.546875 C 6.59375 -7.867188 6.554688 -8.109375 6.484375 -8.265625 C 6.410156 -8.421875 6.289062 -8.519531 6.125 -8.5625 C 5.96875 -8.613281 5.738281 -8.640625 5.4375 -8.640625 L 5.4375 -8.859375 L 8 -8.859375 L 8 -8.640625 C 7.675781 -8.640625 7.441406 -8.570312 7.296875 -8.4375 C 7.148438 -8.300781 7.078125 -8.078125 7.078125 -7.765625 L 7.078125 0.140625 L 6.90625 0.140625 L 1.859375 -7.046875 L 1.828125 -7.046875 L 1.828125 -1.34375 C 1.828125 -1.019531 1.863281 -0.773438 1.9375 -0.609375 C 2.007812 -0.453125 2.117188 -0.347656 2.265625 -0.296875 C 2.410156 -0.253906 2.625 -0.226562 2.90625 -0.21875 L 3.078125 -0.21875 L 3.078125 0 L 0.34375 0 L 0.34375 -0.21875 C 0.707031 -0.238281 0.960938 -0.304688 1.109375 -0.421875 C 1.265625 -0.546875 1.34375 -0.789062 1.34375 -1.15625 L 1.34375 -7.765625 C 1.300781 -7.804688 1.257812 -7.851562 1.21875 -7.90625 C 1.1875 -7.96875 1.144531 -8.03125 1.09375 -8.09375 C 0.925781 -8.3125 0.785156 -8.457031 0.671875 -8.53125 C 0.566406 -8.601562 0.390625 -8.640625 0.140625 -8.640625 L 0.140625 -8.859375 L 2.0625 -8.859375 Z M 6.5625 -2.46875 "/></g></g></g><g fill="#000000" fill-opacity="1"><g transform="translate(328.020283, 208.049943)"><g><path d="M 3.875 -9.0625 L 6.125 -2.046875 C 6.332031 -1.410156 6.476562 -0.976562 6.5625 -0.75 C 6.65625 -0.53125 6.765625 -0.382812 6.890625 -0.3125 C 7.015625 -0.25 7.210938 -0.21875 7.484375 -0.21875 L 7.484375 0 L 4.453125 0 L 4.453125 -0.21875 C 4.722656 -0.21875 4.914062 -0.253906 5.03125 -0.328125 C 5.15625 -0.410156 5.21875 -0.546875 5.21875 -0.734375 C 5.21875 -0.859375 5.171875 -1.050781 5.078125 -1.3125 L 4.59375 -2.828125 L 2.359375 -2.828125 L 1.875 -1.203125 C 1.8125 -0.972656 1.78125 -0.816406 1.78125 -0.734375 C 1.78125 -0.523438 1.847656 -0.382812 1.984375 -0.3125 C 2.128906 -0.25 2.347656 -0.21875 2.640625 -0.21875 L 2.640625 0 L 0.234375 0 L 0.234375 -0.21875 C 0.566406 -0.21875 0.804688 -0.304688 0.953125 -0.484375 C 1.109375 -0.660156 1.257812 -1 1.40625 -1.5 L 3.671875 -9.0625 Z M 2.5 -3.328125 L 4.4375 -3.328125 L 3.4375 -6.484375 L 3.40625 -6.484375 Z M 2.5 -3.328125 "/></g></g></g><g fill="#000000" fill-opacity="1"><g transform="translate(335.739918, 208.049943)"><g><path d="M 3.828125 -8.640625 C 3.515625 -8.640625 3.28125 -8.617188 3.125 -8.578125 C 2.96875 -8.535156 2.851562 -8.429688 2.78125 -8.265625 C 2.707031 -8.109375 2.671875 -7.863281 2.671875 -7.53125 L 2.671875 -1.140625 C 2.671875 -0.878906 2.707031 -0.707031 2.78125 -0.625 C 2.863281 -0.539062 3.023438 -0.5 3.265625 -0.5 L 4.3125 -0.5 C 4.789062 -0.5 5.160156 -0.550781 5.421875 -0.65625 C 5.679688 -0.769531 5.882812 -0.957031 6.03125 -1.21875 C 6.1875 -1.476562 6.351562 -1.875 6.53125 -2.40625 L 6.734375 -2.34375 L 6.09375 0 L 0.28125 0 L 0.28125 -0.21875 C 0.613281 -0.21875 0.859375 -0.242188 1.015625 -0.296875 C 1.171875 -0.347656 1.28125 -0.445312 1.34375 -0.59375 C 1.40625 -0.75 1.4375 -0.988281 1.4375 -1.3125 L 1.4375 -7.53125 C 1.4375 -7.863281 1.398438 -8.109375 1.328125 -8.265625 C 1.253906 -8.421875 1.140625 -8.519531 0.984375 -8.5625 C 0.828125 -8.613281 0.59375 -8.640625 0.28125 -8.640625 L 0.28125 -8.859375 L 3.828125 -8.859375 Z M 3.828125 -8.640625 "/></g></g></g><path stroke-linecap="butt" transform="matrix(0, -0.75, 0.75, 0, 148.623921, 224.976547)" fill="none" stroke-linejoin="miter" d="M -0.0000208979 2.001439 L 99.942694 2.001439 " stroke="#000000" stroke-width="4" stroke-opacity="1" stroke-miterlimit="4"/></svg>